<svg width="391" height="325" viewBox="0 0 391 325" fill="none" xmlns="http://www.w3.org/2000/svg">
<path d="M304.441 253.761H290.436L285.646 283.093C285.545 283.106 285.444 283.113 285.339 283.126C274.757 284.509 266.544 293.258 266.635 303.042C266.676 307.133 268.097 310.329 270.645 312.948C272.947 315.315 276.083 316.598 279.249 316.598C280.488 316.598 281.73 316.403 282.929 315.998C288.633 314.069 290.527 309.368 291.415 305.064C291.415 305.067 291.411 305.074 291.411 305.081C291.668 300.277 289.055 295.532 284.073 292.724L282.497 302.501C281.99 305.276 281.332 306.934 279.921 307.412C279.077 307.697 278.038 307.402 277.335 306.679C276.431 305.747 275.901 304.709 275.884 302.956C275.837 298.065 279.752 294.226 284.073 292.724C285.43 292.243 286.841 292.018 288.417 292.018C290.017 292.018 291.702 292.32 293.241 292.827C299.077 294.18 302.615 300.26 303.489 306.845L304.002 310.535H313.714L304.441 253.761ZM294.48 283.723L297.264 262.733H297.609L300.718 286.156C298.743 285.099 296.643 284.273 294.48 283.723ZM387.648 269.596V310.531H377.956V269.596H387.648ZM359.361 324.711C372.086 324.711 373.069 317.587 373.069 307.518L373.153 269.599H368.137C366.331 269.599 364.117 270.929 363.965 272.643L363.847 273.966L363.378 272.719C362.443 270.242 360.09 268.933 356.573 268.933C353.038 268.933 350.429 270.266 348.816 272.891C347.246 275.444 346.918 278.746 346.918 281.067V296.984C346.918 300.933 347.506 303.841 348.714 305.87C350.183 308.337 352.559 309.537 355.985 309.537C359.226 309.537 361.676 308.184 362.885 305.727L363.462 304.557V310.415C363.462 314.423 363.209 317.262 359.952 317.262C359.205 317.262 356.779 317.013 356.779 313.813V313.698H347.003V313.896C347.003 317.006 347.86 319.509 349.552 321.333C351.624 323.574 354.925 324.711 359.361 324.711ZM363.293 295.33C363.293 299.232 362.733 301.348 359.783 301.348C356.988 301.348 356.61 298.725 356.61 296.159V281.899C356.61 278.687 357.784 277.125 360.205 277.125C362.925 277.125 363.293 279.748 363.293 282.314V295.33ZM388.154 260.595C388.154 263.496 385.805 265.767 382.804 265.767C379.85 265.767 377.538 263.496 377.538 260.595C377.538 257.647 379.85 255.34 382.804 255.34C385.754 255.34 388.154 257.697 388.154 260.595ZM326.497 282.811V310.535H316.721L316.637 269.599H322.071C323.938 269.599 326.092 270.892 326.328 272.818L326.436 273.7L326.892 272.934C328.468 270.282 331.02 268.936 334.48 268.936C340.046 268.936 342.871 272.46 342.871 279.416V310.538H333.18V281.568C333.18 278.62 332.141 277.125 330.092 277.125C327.438 277.125 326.497 278.614 326.497 282.811Z" fill="#AAAAA9"/>
<path d="M291.411 305.081C291.901 303.028 293.035 295.148 293.238 292.827C291.702 292.323 290.014 292.018 288.414 292.018C286.838 292.018 285.427 292.247 284.07 292.725C289.055 295.533 291.668 300.277 291.411 305.081Z" fill="#AAAAA9"/>
<path d="M29.2411 6.22261C29.2411 1.98261 25.2151 0.922607 22.0368 0.922607V1.55861C23.9438 1.55861 25.427 2.19461 25.427 3.67861C25.427 4.52661 24.7914 5.79861 22.8843 5.79861C21.4011 5.79861 18.2227 4.95061 15.8919 4.10261C13.1373 3.04261 10.5946 2.19461 8.47568 2.19461C4.23784 2.19461 1.27135 5.37461 1.27135 8.97861C1.27135 12.1586 3.60216 13.2186 4.44973 13.6426L4.66162 13.2186C4.23784 12.7946 3.60216 12.3706 3.60216 11.0986C3.60216 10.2506 4.44973 8.76661 6.56865 8.76661C8.47568 8.76661 11.0184 9.61461 14.4086 10.6746C17.3751 11.5226 20.5535 12.1586 22.2486 12.3706V18.9426L19.0703 21.6986V21.9106L22.2486 24.6666V33.7826C20.5535 34.8426 18.6465 35.0546 16.9514 35.0546C13.773 35.0546 11.0184 34.2066 8.68757 31.6626L17.3751 27.4226V12.7946L6.78054 17.4586C7.62811 14.7026 9.95892 12.7946 12.2897 11.5226L12.0778 10.8866C5.72108 12.5826 0 18.5186 0 25.7266C0 34.2066 6.99243 40.5666 14.8324 40.5666C23.3081 40.5666 28.8173 33.7826 28.8173 26.7866H28.3935C27.1222 29.5426 25.2151 32.0866 22.8843 33.3586V24.6666L26.2746 21.9106V21.6986L22.8843 18.9426V12.3706C26.0627 12.3706 29.2411 10.2506 29.2411 6.22261ZM10.8065 29.5426L8.26378 30.8146C6.78054 28.9066 5.93297 26.3626 5.93297 22.7586C5.93297 21.2746 5.93297 19.5786 6.35676 18.3066L10.8065 16.3986V29.5426ZM33.267 34.4186L30.5124 36.5386L30.9362 36.9626L32.2076 35.9026L36.8692 40.1426L43.2259 35.9026L43.0141 35.4786L41.3189 36.5386L39.2 34.4186V20.0026L40.8951 18.7306L44.4973 21.6986V34.6306C44.4973 42.6866 42.8022 43.9586 39.2 45.2306V45.8666C45.133 46.0786 50.6422 44.1706 50.6422 33.7826V19.7906L52.5492 18.3066L52.1254 17.8826L50.4303 19.1546L45.133 14.7026L39.2 19.1546V1.77061H38.7762L31.36 6.85861V7.28261C32.2076 7.70661 33.4789 8.13061 33.4789 10.4626L33.267 34.4186ZM72.0432 32.0866L66.7459 36.1146L61.4486 31.8746V29.3306L71.4076 22.5466V22.3346L66.3222 14.7026L55.3038 20.6386V34.6306L53.1849 36.3266L53.6086 36.7506L55.5157 35.2666L62.72 40.5666L72.2551 32.9346L72.0432 32.0866ZM61.4486 28.4826V18.0946L61.8724 17.8826L66.534 25.3026L61.4486 28.4826ZM112.515 4.31461C112.515 3.67861 112.303 3.04261 112.091 2.40661H111.667C111.031 4.10261 110.184 4.95061 108.065 4.95061C106.158 4.95061 104.886 3.89061 104.039 3.04261L97.8941 10.0386L98.3178 10.4626L100.437 8.55461C101.708 9.61461 102.768 10.4626 105.734 10.6746V28.2706L93.2324 6.85861C92.173 5.16261 90.6897 2.83061 87.7232 2.83061C84.333 2.83061 81.3665 5.79861 81.7903 10.4626H82.4259C82.6378 9.19061 83.2735 7.70661 84.7568 7.70661C85.8162 7.70661 86.8757 8.76661 87.5114 9.82661V16.8226C83.6973 16.8226 81.1546 18.5186 81.1546 21.6986C81.1546 23.3946 82.0022 25.9386 84.5449 26.5746V26.1506C84.1211 25.7266 83.9092 25.3026 83.9092 24.6666C83.9092 23.6066 84.7568 22.7586 86.24 22.7586H87.2995V31.6626C82.8497 31.6626 79.2476 34.2066 79.2476 38.4466C79.2476 42.4746 82.6378 44.3826 86.4519 44.1706V43.7466C84.1211 43.5346 83.0616 42.4746 83.0616 40.9906C83.0616 39.0826 84.333 38.2346 86.0281 38.2346C87.7232 38.2346 89.2065 39.2946 90.2659 40.5666L96.4108 33.7826L95.987 33.3586L94.5038 35.0546C92.173 32.9346 90.9016 32.2986 88.147 31.8746V10.6746L105.098 40.3546H106.37V10.6746C109.548 10.4626 112.515 7.91861 112.515 4.31461ZM127.983 32.0866L122.685 36.1146L117.388 31.8746V29.3306L127.347 22.5466V22.3346L122.262 14.7026L111.243 20.6386V34.6306L109.124 36.3266L109.548 36.7506L111.455 35.2666L118.659 40.5666L128.195 32.9346L127.983 32.0866ZM117.388 28.4826V18.0946L117.812 17.8826L122.474 25.3026L117.388 28.4826ZM162.521 17.0346L161.038 18.0946L157.012 14.7026L152.35 18.9426L154.257 20.8506V36.7506L149.172 33.5706V20.4266L150.867 19.3666L145.994 14.7026L141.332 18.9426L143.239 20.8506V36.1146L142.603 36.5386L138.154 33.3586V20.6386C138.154 17.6706 136.67 16.8226 134.975 15.7626C133.492 14.7026 132.644 14.0666 132.644 12.5826C132.644 11.3106 133.916 10.6746 134.551 10.2506V9.82661C132.856 9.82661 128.406 11.5226 128.406 15.5506C128.406 17.6706 129.466 18.5186 130.525 19.5786C131.585 20.6386 132.644 21.4866 132.644 23.3946V35.6906L130.314 37.3866L130.737 37.8106L132.856 36.1146L137.73 40.3546L143.027 36.7506L148.96 40.3546L160.19 33.7826V19.5786L162.945 17.4586L162.521 17.0346ZM201.933 5.37461L199.814 7.28261L195.152 3.04261L188.16 8.13061V3.46661H187.524L187.736 37.8106C187.101 37.8106 185.194 37.3866 183.71 36.9626L183.286 8.34261C183.286 6.22261 181.803 3.25461 177.989 3.25461C174.175 3.25461 171.632 6.22261 171.632 9.19061H172.268C172.48 7.91861 173.116 6.85861 174.387 6.85861C175.658 6.85861 176.718 7.70661 176.718 10.4626V18.7306C172.904 18.9426 170.573 21.0626 170.573 23.8186C170.573 25.5146 171.421 28.0586 173.963 28.0586V27.6346C173.116 27.2106 172.904 26.5746 172.904 26.1506C172.904 24.8786 173.963 24.4546 175.658 24.4546H176.506V37.5986C173.328 38.6586 172.056 40.9906 172.056 43.5346C172.056 47.1386 174.811 49.6826 179.049 49.6826C182.015 49.6826 184.558 49.2586 187.101 48.6226C189.219 48.1986 191.974 47.5626 193.245 47.5626C194.941 47.5626 195.576 48.4106 195.576 49.4706C195.576 50.9546 194.941 51.5906 194.093 51.8026V52.2266C197.483 51.5906 199.602 49.4706 199.602 46.2906C199.602 43.1106 196.424 41.2026 193.034 41.2026C191.338 41.2026 187.736 41.8386 185.194 42.2626C182.227 42.8986 179.261 43.3226 178.413 43.3226C176.93 43.3226 175.235 42.6866 175.235 40.5666C175.235 38.8706 176.718 37.3866 180.32 37.3866C182.227 37.3866 184.558 37.5986 186.889 38.2346C189.431 38.8706 191.762 39.5066 193.881 39.5066C197.059 39.5066 199.814 38.4466 199.814 33.9946V7.91861L202.357 5.79861L201.933 5.37461ZM193.245 18.3066C192.61 18.9426 191.762 19.5786 190.703 19.5786C189.643 19.5786 188.584 18.9426 188.16 18.3066V8.97861L190.279 7.49461L193.245 10.2506V18.3066ZM193.245 24.6666C192.822 24.2426 191.762 23.6066 190.703 23.6066C189.643 23.6066 188.584 24.2426 188.16 24.6666V19.1546C188.584 19.5786 189.643 20.2146 190.703 20.2146C191.762 20.2146 192.822 19.5786 193.245 19.1546V24.6666ZM193.245 34.6306C193.245 36.3266 192.186 38.0226 189.855 38.0226H188.16V25.5146C188.584 25.0906 189.643 24.4546 190.703 24.4546C191.762 24.4546 192.61 25.0906 193.245 25.5146V34.6306ZM222.275 19.5786L215.494 14.7026L205.111 20.6386V34.4186L202.992 36.1146L203.204 36.5386L204.899 35.2666L211.68 40.3546L222.275 33.9946V19.5786ZM210.832 32.9346V17.6706L216.13 21.4866V36.5386L210.832 32.9346ZM242.404 15.1266H241.981C241.345 15.5506 240.709 15.9746 240.074 15.9746C239.226 15.9746 238.166 15.5506 237.743 14.9146H237.319L233.717 18.9426L230.115 14.9146L223.758 19.1546L223.97 19.5786L225.665 18.5186L227.784 20.8506V34.2066L225.029 36.3266L225.453 36.7506L226.724 35.6906L231.81 39.9306L238.378 35.4786L238.166 35.0546L236.259 36.1146L233.717 33.9946V19.1546C234.776 20.2146 236.048 21.2746 237.531 21.2746C240.497 21.4866 242.192 18.5186 242.404 15.1266ZM267.831 35.4786L260.627 40.3546L250.88 25.5146L257.872 14.7026H258.296C259.144 15.5506 260.415 16.3986 261.898 16.3986C263.382 16.3986 264.441 15.5506 265.077 14.7026H265.501C265.289 18.9426 262.322 21.4866 260.203 21.4866C258.084 21.4866 257.025 20.4266 255.754 19.7906L255.118 20.8506L265.712 36.5386L267.831 35.2666V35.4786ZM244.523 34.4186L241.769 36.5386L242.192 36.9626L243.464 35.9026L248.125 40.1426L254.482 35.9026L254.058 35.4786L252.363 36.5386L250.244 34.4186V1.77061H250.032L242.404 6.85861V7.28261C243.252 7.70661 244.523 7.91861 244.523 10.4626V34.4186ZM303.005 6.22261C303.005 1.98261 298.979 0.922607 295.801 0.922607V1.55861C297.708 1.55861 299.191 2.19461 299.191 3.67861C299.191 4.52661 298.556 5.79861 296.649 5.79861C295.165 5.79861 291.987 4.95061 289.656 4.10261C286.902 3.25461 284.359 2.40661 282.24 2.40661C278.002 2.40661 275.036 5.58661 275.036 9.19061C275.036 12.3706 277.366 13.4306 278.214 13.8546L278.426 13.4306C277.79 13.0066 277.155 12.5826 277.155 11.3106C277.155 10.4626 278.002 8.97861 280.121 8.97861C282.028 8.97861 284.571 9.82661 287.961 10.8866C290.928 11.7346 294.106 12.3706 295.801 12.5826V19.1546L292.623 21.9106V22.1226L295.801 24.8786V33.9946C294.106 35.0546 292.199 35.2666 290.504 35.2666C287.325 35.2666 284.571 34.4186 282.24 31.8746L290.928 27.6346V12.7946L280.333 17.4586C281.392 14.7026 283.723 12.7946 285.842 11.3106L285.63 10.8866C279.274 12.5826 273.552 18.3066 273.552 25.5146C273.552 33.9946 280.545 40.3546 288.385 40.3546C296.861 40.3546 302.37 33.5706 302.37 26.5746H301.946C300.675 29.3306 298.768 31.8746 296.437 33.1466V24.4546L299.827 21.6986V21.4866L296.649 18.7306V12.3706C299.827 12.3706 303.005 10.2506 303.005 6.22261ZM284.571 29.5426L282.028 30.8146C280.545 28.9066 279.697 26.3626 279.697 22.7586C279.697 21.2746 279.909 19.5786 280.333 18.3066L284.783 16.3986L284.571 29.5426ZM310.422 4.10261H310.21L305.972 7.70661V7.91861L309.574 11.9466H309.998L314.236 8.34261V8.13061L310.422 4.10261ZM316.778 35.4786L315.083 36.5386L312.964 34.4186V19.7906L315.083 18.3066L314.659 17.8826L313.176 19.1546L309.362 14.7026L303.217 18.9426L303.641 19.5786L305.124 18.5186L307.031 20.8506V34.6306L304.277 36.7506L304.489 37.1746L305.972 36.1146L310.634 40.3546L316.99 36.1146L316.778 35.4786ZM352.164 35.2666L350.681 36.3266L348.35 34.2066V19.7906L350.469 18.0946L350.045 17.6706L348.35 19.1546L343.477 14.7026L337.12 19.1546L332.246 14.7026L326.314 19.1546L322.499 14.7026L316.355 18.9426L316.566 19.5786L318.05 18.5186L320.169 20.8506V34.6306L318.474 36.3266L323.347 40.3546L328.009 36.1146L326.102 34.2066V19.7906L328.009 18.5186L331.187 21.4866V34.2066L329.492 35.9026L334.365 39.9306L339.027 35.6906L337.12 33.7826V19.7906L338.815 18.7306L342.205 21.6986V34.4186L340.722 35.9026L345.596 40.3546L352.164 35.9026V35.2666ZM370.599 32.0866L365.302 36.1146L360.004 31.8746V29.3306L369.963 22.5466V22.3346L364.878 14.7026L353.859 20.6386V35.0546L361.276 40.3546L370.811 32.7226L370.599 32.0866ZM360.004 28.4826V18.0946L360.428 17.8826L365.09 25.3026L360.004 28.4826ZM389.881 26.5746L385.855 23.3946C388.61 21.0626 389.669 17.8826 389.669 15.7626V14.4906H389.245C388.822 15.5506 387.974 16.6106 386.279 16.6106C384.584 16.6106 383.524 15.7626 382.465 14.4906L372.93 19.7906V27.4226L376.532 30.1786C372.93 33.3586 372.294 35.4786 372.294 37.1746C372.294 39.2946 373.354 40.7786 375.049 41.4146L375.261 40.9906C374.837 40.5666 374.413 40.3546 374.413 39.2946C374.413 38.6586 375.261 37.5986 376.956 37.5986C379.075 37.5986 380.346 39.0826 380.982 39.7186L390.093 34.2066V26.5746H389.881ZM387.55 20.2146C386.067 22.7586 382.889 25.3026 380.982 26.5746L378.651 24.6666V17.2466C379.498 19.3666 381.829 21.0626 384.16 21.0626C385.643 21.0626 386.491 20.8506 387.55 20.2146ZM383.948 37.1746C382.889 34.8426 380.346 33.1466 377.803 33.1466C377.168 33.1466 375.472 33.1466 373.777 34.2066C374.837 32.5106 377.591 29.5426 381.193 27.4226L383.736 29.5426L383.948 37.1746Z" fill="#AAAAA9"/>
<path d="M249.119 111.825C245.272 111.825 242.016 115.057 242.016 118.882C242.016 122.739 245.269 126.003 249.119 126.003C252.934 126.003 256.158 122.746 256.158 118.882C256.158 115.057 252.934 111.825 249.119 111.825Z" fill="#AAAAA9"/>
<path d="M350.306 101.977C349.398 101.123 348.363 100.416 347.238 99.8821C346.078 99.3185 344.806 99.0275 343.517 99.0312C342.56 99.0216 341.613 99.2225 340.742 99.6198C339.893 100.013 339.468 100.689 339.468 101.65C339.468 102.564 339.936 103.218 340.872 103.613C341.807 104.008 343.32 104.444 345.41 104.923C346.667 105.196 347.9 105.569 349.098 106.037C350.307 106.499 351.441 107.138 352.462 107.934C353.459 108.715 354.282 109.696 354.878 110.814C355.486 111.949 355.791 113.302 355.791 114.871C355.791 116.923 355.378 118.658 354.552 120.076C353.757 121.459 352.65 122.636 351.32 123.513C349.952 124.403 348.438 125.045 346.848 125.411C345.224 125.8 343.56 125.998 341.89 126C339.236 126.001 336.599 125.57 334.083 124.724C331.537 123.872 329.415 122.618 327.717 120.959L333.724 114.61C334.727 115.693 335.921 116.581 337.246 117.229C338.624 117.924 340.147 118.283 341.691 118.276C342.587 118.271 343.469 118.058 344.27 117.655C345.118 117.241 345.543 116.509 345.543 115.462C345.543 114.458 345.021 113.716 343.976 113.233C342.932 112.75 341.299 112.249 339.08 111.728C337.925 111.46 336.79 111.11 335.684 110.681C334.582 110.263 333.556 109.665 332.648 108.913C331.741 108.154 330.998 107.219 330.461 106.164C329.895 105.074 329.612 103.765 329.613 102.236C329.613 100.273 330.026 98.6033 330.853 97.2289C331.655 95.8801 332.748 94.7282 334.052 93.8575C335.381 92.9747 336.849 92.322 338.394 91.9268C339.938 91.5181 341.528 91.3093 343.126 91.3053C345.555 91.3042 347.968 91.6907 350.275 92.4502C352.603 93.2145 354.572 94.36 356.183 95.8874L350.306 101.977ZM378.051 91.4416C374.835 91.4416 372.12 92.3845 370.073 94.1844V77.1855H359.985V125.023H370.072V107.162C370.072 102.655 372.99 101.049 375.722 101.049C379.97 101.049 380.862 104.339 380.862 107.098V125.023H390.956V104.413C390.956 96.7766 385.65 91.4422 378.048 91.4422L378.051 91.4416ZM295.729 96.88C297.644 95.0467 299.925 93.6411 302.421 92.7556C304.923 91.8483 307.563 91.3842 310.223 91.3842C312.965 91.3842 315.283 91.7218 317.175 92.3982C319.069 93.0735 320.602 94.1216 321.778 95.5402C322.953 96.9588 323.813 98.7479 324.357 100.908C324.901 103.068 325.174 105.632 325.174 108.599V124.953H315.283V121.557C309.019 129.411 295.048 126.496 295.048 115.6C295.048 113.628 296.479 105.717 307.619 104.705C309.831 104.504 311.802 104.603 315.057 104.603V104.079C315.057 102.466 314.49 101.277 313.359 100.512C312.227 99.7471 310.834 99.3658 309.181 99.367C307.657 99.367 306.153 99.7016 304.773 100.348C303.359 101.003 302.466 101.567 301.464 102.483L295.729 96.88ZM315.38 110.822H311.429C308.204 110.822 306.446 112.184 305.925 112.748C305.385 113.312 305.089 114.068 305.103 114.85C305.089 115.352 305.223 115.847 305.487 116.273C305.735 116.66 306.068 116.984 306.462 117.22C306.881 117.467 307.342 117.638 307.821 117.724C308.306 117.82 308.798 117.87 309.293 117.872C311.262 117.872 312.769 117.33 313.813 116.244C314.856 115.158 315.378 113.687 315.378 111.831V110.822H315.38ZM281.394 77.1282V94.1575C279.171 92.3038 276.441 91.3663 273.188 91.3663C264.158 91.3663 257.347 98.7569 257.347 108.556C257.347 118.355 264.156 125.982 273.188 125.982C276.461 125.982 279.514 124.868 281.565 122.825V124.953H291.481V77.1282H281.394ZM282.42 111.802C282.054 112.81 281.509 113.743 280.812 114.556C280.113 115.367 279.259 116.029 278.301 116.504C277.319 116.994 276.203 117.24 274.954 117.24C273.658 117.24 272.518 116.994 271.534 116.501C270.581 116.032 269.737 115.369 269.055 114.554C268.377 113.732 267.865 112.785 267.548 111.766C267.219 110.738 267.051 109.664 267.05 108.583C267.05 107.511 267.219 106.446 267.552 105.427C267.867 104.423 268.382 103.494 269.068 102.697C269.753 101.9 270.594 101.252 271.538 100.792C272.519 100.3 273.659 100.054 274.957 100.054C276.207 100.054 277.323 100.3 278.307 100.792C279.265 101.267 280.119 101.929 280.818 102.74C281.515 103.553 282.059 104.486 282.426 105.493C283.185 107.529 283.185 109.771 282.426 111.807L282.42 111.802Z" fill="#AAAAA9"/>
<path d="M16.5089 160.474V180C16.5089 180 23.3013 180 26.9365 179.72C29.7953 179.213 30.3215 178.934 30.8477 176.038L31.9001 171.797H35.0091L34.4829 181.066L34.7589 190.562H31.6241L30.8477 186.854C30.0712 184.215 29.0188 183.679 26.9365 183.425C24.3312 183.146 16.5089 183.146 16.5089 183.146V199.523C16.5089 202.672 18.0874 204.017 21.7227 204.017H32.6765C36.0615 204.017 39.4433 203.738 41.5513 198.736L44.3844 192.389H47.0154C46.7394 193.708 45.4368 205.337 45.1865 207.953C45.1865 207.953 35.285 207.7 31.1236 207.7H12.3474L1.14331 207.953V205.083L4.77855 204.271C7.40953 203.738 8.18599 202.951 8.18599 200.842C8.18599 200.842 8.46192 193.708 8.46192 181.823C8.46192 169.967 8.18599 162.83 8.18599 162.83C8.18599 160.467 7.40953 159.934 4.77855 159.401L1.14331 158.621V155.726L12.0972 155.953H32.9525C37.1139 155.953 44.1309 155.193 44.1309 155.193C44.1309 155.193 43.8806 159.661 43.6047 170.224H40.7459L39.6935 166.516C38.6668 161.767 37.1107 159.405 34.2294 159.405H17.8372C16.5089 159.408 16.5089 159.661 16.5089 160.474ZM58.72 162.557H61.8547V173.653L72.5583 173.12L72.0321 178.147L61.6044 177.335V196.887C61.6044 202.422 63.4333 204.554 66.568 204.554C69.4011 204.554 71.5059 202.955 72.2824 201.635L73.8353 203.488C72.2824 207.17 67.8707 209.022 63.6836 209.022C58.4954 209.022 54.2826 205.873 54.2826 199.805V177.611H48.0645V174.972C53.2816 174.439 57.1671 171.264 58.72 162.557ZM81.1539 196.604L83.233 201.632C84.0095 203.738 85.8383 205.873 89.9997 205.873C94.4371 205.873 96.266 203.488 96.266 200.592C96.266 191.602 78.7956 194.245 78.7956 182.106C78.7956 175.252 84.2597 172.05 91.3024 172.05C94.4371 172.05 99.1247 172.583 101.48 173.649C100.954 176.288 100.678 179.717 100.678 182.359L98.0948 182.613L96.266 177.332C95.7398 176.038 93.635 174.969 91.0521 174.969C87.9174 174.969 84.7859 176.288 84.7859 179.717C84.7859 187.894 102.782 186.064 102.782 198.203C102.782 205.083 96.7922 208.766 89.4735 208.766C84.0095 208.766 78.5197 206.634 78.5197 206.634C79.0459 203.484 78.7956 200.059 78.5197 196.604H81.1539ZM101.483 221.944C102.259 219.049 102.786 215.37 103.312 211.915L106.171 211.661L107.223 217.196C107.473 218.516 108.25 219.582 110.332 219.582C113.717 219.582 118.154 217.476 122.338 210.085C120.484 205.59 115.02 191.092 110.056 179.997C108.753 177.078 108.503 176.821 106.697 176.288L105.369 175.781V173.116L113.213 173.396L122.839 172.863V175.505L120.484 176.038C118.655 176.292 117.901 177.332 117.901 178.401C117.901 178.68 117.901 178.934 118.151 179.467C118.652 181.066 122.839 192.925 125.974 200.845C128.556 195.311 133.52 182.896 134.296 180.786C134.572 179.72 134.823 179.467 134.823 178.68C134.823 177.335 134.046 176.548 132.24 176.041L130.385 175.505V172.866L137.704 173.12L144.471 172.866V175.505L143.168 176.545C140.563 177.611 140.287 177.865 139.257 179.997L127.802 207.163C121.01 222.754 113.967 224.073 109.026 224.073C105.895 224.076 103.54 223.264 101.483 221.944Z" fill="#AAAAA9"/>
<path d="M208.527 93.6711L207.928 100.701H204.992C200.304 100.701 197.867 104.375 197.867 107.896V123.772H189.559V93.6711H197.428L197.607 97.4282C199.258 94.8518 202.148 93.6711 205.711 93.6711H208.527ZM150.924 123.772H142.608V107.859C142.608 104.527 142.314 100.332 137.52 100.332C132.903 100.332 131.064 103.59 131.064 107.384V123.772H122.751V93.6709H130.458L130.634 97.519C132.286 94.9427 135.363 92.9366 139.902 92.9366C148.28 92.9366 150.924 98.7854 150.924 104.872V123.772ZM119.125 116.741L118.543 123.59C116.549 124.113 114.779 124.3 112.637 124.3C104.801 124.3 102.529 120.787 102.529 113.727V85.1826H110.844V93.6715H119.118L118.543 100.7H110.844V113.116C110.844 115.949 111.639 117.479 114.611 117.479C115.903 117.479 117.341 117.327 119.125 116.741ZM99.7986 93.6711L99.1547 100.701H96.8952C92.2168 100.701 89.8902 104.37 89.8902 107.896V123.772H81.5741V93.6711H89.4476L89.6115 97.4282C91.272 94.8518 94.1614 93.6711 97.7291 93.6711H99.7986ZM44.0496 120.437C38.4096 123.387 32.7761 125.089 25.335 124.878C11.5402 124.466 1.58801 116.091 1.58801 101.944C1.58801 87.8599 11.6362 78.8607 25.3416 78.6494C32.2888 78.5455 38.5056 80.2692 43.3648 84.4618L37.5114 90.2513C34.5046 87.7451 30.0805 86.2802 24.7937 86.5143C16.1683 86.9069 10.9709 93.0354 10.8563 101.461C10.7436 110.591 16.4693 116.882 25.4198 117.112C29.6314 117.215 32.6485 116.662 35.2593 115.516V106.184H25.9566L26.5845 98.5307H44.0496V120.437ZM185.845 111.582H163.048C163.697 115.429 166.79 117.743 170.641 117.847C174.385 117.947 176.479 116.841 179.218 114.13L184.643 118.174C180.788 122.818 176.16 124.508 170.889 124.508C161.618 124.508 154.673 118.17 154.673 108.721C154.673 99.2816 161.584 92.9363 170.543 92.9363C180.417 92.9363 185.845 98.7851 185.845 109.167V111.582ZM177.515 105.289C177.26 101.486 174.346 99.0821 170.333 99.2351C166.294 99.3845 163.605 101.956 163.048 105.289H177.515ZM76.3393 104.061V123.772H69.0081L68.8264 120.804C66.5771 123.528 62.9255 124.508 59.1659 124.508C53.5044 124.508 48.1552 121.779 48.0434 115.422C47.8747 105.429 59.5451 104.72 66.8744 104.72H68.3391V104.324C68.3391 101.02 66.1029 99.2353 61.8922 99.2353C58.8696 99.2353 55.886 100.421 53.6796 102.443L48.8819 97.6775C53.238 94.2247 57.7701 92.9365 62.5985 92.9365C72.1351 92.9365 76.3393 97.2456 76.3393 104.061ZM68.3391 110.645H67.1828C63.2461 110.653 56.3314 110.843 56.3575 114.868C56.3948 120.538 68.3391 118.736 68.3391 111.898V110.645ZM202.04 120.271C202.04 118.355 203.519 116.911 205.415 116.911C207.288 116.911 208.77 118.355 208.77 120.271C208.77 122.22 207.288 123.66 205.415 123.66C203.519 123.66 202.04 122.22 202.04 120.271ZM205.415 124.333C207.673 124.333 209.599 122.618 209.599 120.271C209.599 117.947 207.673 116.236 205.415 116.236C203.137 116.236 201.209 117.947 201.209 120.271C201.209 122.618 203.137 124.333 205.415 124.333ZM204.538 120.595H205.372L206.629 122.618H207.442L206.084 120.562C206.786 120.478 207.322 120.11 207.322 119.275C207.322 118.355 206.763 117.947 205.634 117.947H203.817V122.618H204.538V120.595ZM204.538 119.993V118.549H205.523C206.028 118.549 206.565 118.655 206.565 119.234C206.565 119.951 206.017 119.993 205.406 119.993H204.538Z" fill="#AAAAA9"/>
<path d="M95.0415 288.224C95.0415 283.689 94.8757 279.869 94.7514 276.636H104.324L104.863 281.632H105.028C106.437 279.365 110.125 275.796 115.927 275.796C123.179 275.796 128.649 280.708 128.649 291.414V312.911H117.667V292.842C117.667 288.224 116.051 284.949 112.115 284.949C109.048 284.949 107.266 287.132 106.562 289.189C106.272 289.819 106.106 290.995 106.106 292.002V312.869H95.1243V288.224H95.0415ZM156.413 292.002C156.413 291.372 156.33 290.575 156.248 290.029C155.626 286.922 153.181 284.487 149.824 284.487C144.81 284.487 142.2 289.105 142.2 294.857C142.2 300.987 145.183 304.85 149.742 304.85C152.974 304.85 155.502 302.582 156.082 299.392C156.248 298.552 156.372 297.754 156.372 296.747L156.413 292.002ZM167.436 260.22V302.037C167.436 306.109 167.602 310.392 167.726 312.869H157.864L157.325 307.495H157.159C154.921 311.567 150.653 313.624 146.053 313.624C137.641 313.624 130.887 306.277 130.887 295.025C130.804 282.766 138.304 275.712 146.799 275.712C151.192 275.712 154.59 277.224 156.206 279.785H156.372V260.22H167.436ZM193.087 290.659C193.087 287.93 191.886 283.311 186.83 283.311C182.189 283.311 180.324 287.552 180.034 290.659H193.087ZM180.158 298.384C180.531 303.002 185.007 305.269 190.186 305.269C193.916 305.269 196.983 304.724 199.966 303.842L201.375 311.483C197.811 312.911 193.294 313.75 188.57 313.75C176.47 313.75 169.591 306.571 169.591 295.277C169.591 286.124 175.144 275.964 187.493 275.964C198.93 275.964 203.323 285.117 203.323 294.102C203.323 295.991 203.157 297.712 202.95 298.552H180.117L180.158 298.384ZM205.726 288.56C205.726 283.185 205.561 279.785 205.436 276.594H214.926L215.299 283.311H215.589C217.371 278.021 221.763 275.796 225.161 275.796C226.156 275.796 226.653 275.796 227.482 275.964V286.586C226.653 286.418 225.783 286.292 224.498 286.292C220.479 286.292 217.702 288.476 216.956 292.002C216.791 292.758 216.791 293.64 216.791 294.563V312.995H205.809V288.56H205.726ZM79.5845 276.678H90.566V312.953H79.5845V276.678ZM69.1003 275.418C69.1003 271.43 71.048 268.449 76.891 268.365C76.518 267.441 76.3522 266.476 76.3522 265.342C76.3522 263.075 77.181 261.102 78.5071 259.506C77.8855 259.422 77.2639 259.422 76.6423 259.422C65.7437 259.422 58.036 265.048 58.036 275.04V276.552H53.3948V284.907H58.036V312.827H69.1418V284.907H75.0676V276.594H69.1003V275.418Z" fill="#AAAAA9"/>
<path d="M14.0682 282.304C12.9079 284.655 13.3637 287.678 15.3114 289.651C17.7149 292.17 21.8588 292.128 24.3866 289.609C26.9145 287.09 26.9145 282.934 24.3866 280.373C22.439 278.357 19.4554 277.895 17.1347 279.113L18.3779 280.457C17.7149 280.666 17.0519 281.128 16.5131 281.674C15.933 282.22 15.4772 282.808 15.3114 283.563L14.0682 282.304Z" fill="#AAAAA9"/>
<path fill-rule="evenodd" clip-rule="evenodd" d="M0.517578 289.105C0.517578 276.048 10.8774 265.342 23.8066 265.342H47.0956V289.105C47.0956 302.163 36.6942 312.869 23.8066 312.869C10.9189 312.869 0.517578 302.289 0.517578 289.105ZM13.6538 278.861C16.969 275.376 22.3976 275.376 25.837 278.861C28.9864 282.01 29.2765 287.09 26.5415 290.617L29.0693 293.262C29.8152 292.884 30.6854 293.094 31.2242 293.64L36.0311 298.468C36.7771 299.224 36.7771 300.357 36.0311 301.113L35.4924 301.659C34.7465 302.415 33.6277 302.415 32.8817 301.659L28.1162 296.831C27.4532 296.285 27.3703 295.403 27.7432 294.647L25.2154 292.002C21.8174 294.857 16.8032 294.563 13.6538 291.373C10.2143 287.93 10.2143 282.346 13.6538 278.861Z" fill="#AAAAA9"/>
<path d="M91.602 265.342C91.602 269.037 88.7426 271.933 85.096 271.933C81.5322 271.933 78.59 268.911 78.59 265.342C78.59 261.773 81.4493 258.75 85.096 258.75C88.7426 258.75 91.602 261.731 91.602 265.342Z" fill="#AAAAA9"/>
<path d="M270.791 190.093C270.791 199.948 263.042 207.21 253.531 207.21C244.021 207.21 236.271 199.948 236.271 190.093C236.271 180.168 244.021 172.976 253.531 172.976C263.042 172.976 270.791 180.168 270.791 190.093ZM263.236 190.093C263.236 183.935 258.744 179.721 253.531 179.721C248.318 179.721 243.827 183.935 243.827 190.093C243.827 196.19 248.318 200.465 253.531 200.465C258.744 200.465 263.236 196.182 263.236 190.093Z" fill="#AAAAA9"/>
<path d="M308.027 190.093C308.027 199.948 300.277 207.21 290.767 207.21C281.256 207.21 273.506 199.948 273.506 190.093C273.506 180.176 281.256 172.976 290.767 172.976C300.277 172.976 308.027 180.168 308.027 190.093ZM300.471 190.093C300.471 183.935 295.98 179.721 290.767 179.721C285.554 179.721 281.062 183.935 281.062 190.093C281.062 196.19 285.554 200.465 290.767 200.465C295.98 200.465 300.471 196.182 300.471 190.093Z" fill="#AAAAA9"/>
<path d="M343.71 174.01V204.741C343.71 217.382 336.217 222.545 327.358 222.545C319.019 222.545 314 216.996 312.107 212.458L318.685 209.734C319.857 212.52 322.727 215.807 327.35 215.807C333.021 215.807 336.535 212.327 336.535 205.775V203.313H336.271C334.58 205.389 331.322 207.202 327.211 207.202C318.608 207.202 310.726 199.747 310.726 190.155C310.726 180.493 318.608 172.976 327.211 172.976C331.314 172.976 334.572 174.789 336.271 176.804H336.535V174.018H343.71V174.01ZM337.07 190.155C337.07 184.127 333.029 179.721 327.885 179.721C322.673 179.721 318.305 184.127 318.305 190.155C318.305 196.12 322.673 200.465 327.885 200.465C333.029 200.465 337.07 196.12 337.07 190.155Z" fill="#AAAAA9"/>
<path d="M355.54 155.998V206.161H348.171V155.998H355.54Z" fill="#AAAAA9"/>
<path d="M384.258 195.727L390.123 199.616C388.23 202.402 383.669 207.202 375.787 207.202C366.013 207.202 358.713 199.686 358.713 190.085C358.713 179.906 366.075 172.968 374.942 172.968C383.87 172.968 388.238 180.037 389.665 183.857L390.448 185.802L367.448 195.279C369.209 198.713 371.947 200.465 375.787 200.465C379.635 200.465 382.303 198.582 384.258 195.727ZM366.207 189.568L381.582 183.217C380.736 181.079 378.192 179.59 375.198 179.59C371.358 179.59 366.013 182.962 366.207 189.568Z" fill="#AAAAA9"/>
<path d="M208.376 185.64V178.378H232.974C233.215 179.644 233.339 181.141 233.339 182.762C233.339 188.21 231.842 194.947 227.017 199.748C222.323 204.61 216.327 207.203 208.383 207.203C193.66 207.203 181.279 195.271 181.279 180.624C181.279 165.976 193.66 154.045 208.383 154.045C216.529 154.045 222.331 157.225 226.691 161.369L221.54 166.493C218.414 163.576 214.178 161.307 208.376 161.307C197.624 161.307 189.215 169.928 189.215 180.624C189.215 191.32 197.624 199.94 208.376 199.94C215.35 199.94 219.321 197.155 221.866 194.623C223.929 192.57 225.287 189.638 225.822 185.632L208.376 185.64Z" fill="#AAAAA9"/>
</svg>
