<svg id="prefix__Layer_1" xmlns="http://www.w3.org/2000/svg" x="0" y="0" viewBox="0 0 547.7 131" xml:space="preserve" class="is-visible@m is-hidden luna-icon luna-icon-invert luna-icon--large global-nav__header__logo" width="84" height="20"><style>.prefix__st0{fill:#0271e1}.prefix__st2{fill:#172f4a}</style><path class="prefix__st0" d="M56.2 15.7C25 15.7 0 41.2 0 72.3c0 31.4 25.1 56.6 56.2 56.6s56.2-25.5 56.2-56.6V15.7H56.2z"></path><path d="M35.7 73.6c-4.7-4.7-5.8-11.9-3-17.5l3 3c.4-1.8 1.5-3.2 2.9-4.5 1.3-1.3 2.9-2.4 4.5-2.9l-3-3.2c5.6-2.9 12.8-1.8 17.5 3 6.1 6.1 6.1 16 0 22s-16.1 6.1-21.9.1zm25.4-25.7c-8.3-8.3-21.4-8.3-29.4 0-8.3 8.3-8.3 21.6 0 29.8 7.6 7.6 19.7 8.3 27.9 1.5l6.1 6.3c-.9 1.8-.7 3.9.9 5.2l11.5 11.5c1.8 1.8 4.5 1.8 6.3 0l1.3-1.3c1.8-1.8 1.8-4.5 0-6.3L74.1 83.1c-1.3-1.3-3.4-1.8-5.2-.9l-6.1-6.3c6.6-8.4 5.9-20.5-1.7-28z" fill="#fff"></path><path class="prefix__st2" d="M228.1 70.2c0-10.8-.4-19.9-.7-27.6h23.1l1.3 11.9h.4c3.4-5.4 12.3-13.9 26.3-13.9 17.5 0 30.7 11.7 30.7 37.2V129h-26.5V81.2c0-11-3.9-18.8-13.4-18.8-7.4 0-11.7 5.2-13.4 10.1-.7 1.5-1.1 4.3-1.1 6.7v49.7h-26.5V70.2h-.2zM376.2 79.2c0-1.5-.2-3.4-.4-4.7-1.5-7.4-7.4-13.2-15.5-13.2-12.1 0-18.4 11-18.4 24.7 0 14.6 7.2 23.8 18.2 23.8 7.8 0 13.9-5.4 15.3-13 .4-2 .7-3.9.7-6.3l.1-11.3zm26.6-75.7v99.6c0 9.7.4 19.9.7 25.8h-23.8l-1.3-12.8h-.4c-5.4 9.7-15.7 14.6-26.8 14.6-20.3 0-36.6-17.5-36.6-44.3-.2-29.2 17.9-46 38.4-46 10.6 0 18.8 3.6 22.7 9.7h.4V3.5h26.7zM464.7 76c0-6.5-2.9-17.5-15.1-17.5-11.2 0-15.7 10.1-16.4 17.5h31.5zm-31.2 18.4c.9 11 11.7 16.4 24.2 16.4 9 0 16.4-1.3 23.6-3.4l3.4 18.2c-8.6 3.4-19.5 5.4-30.9 5.4-29.2 0-45.8-17.1-45.8-44 0-21.8 13.4-46 43.2-46 27.6 0 38.2 21.8 38.2 43.2 0 4.5-.4 8.6-.9 10.6h-55.1l.1-.4zM495.2 71c0-12.8-.4-20.9-.7-28.5h22.9l.9 16h.7c4.3-12.6 14.9-17.9 23.1-17.9 2.4 0 3.6 0 5.6.4v25.3c-2-.4-4.1-.7-7.2-.7-9.7 0-16.4 5.2-18.2 13.6-.4 1.8-.4 3.9-.4 6.1v43.9h-26.5V71h-.2zM190.8 42.7h26.5v86.4h-26.5zM165.5 39.7c0-9.5 4.7-16.6 18.8-16.8-.9-2.2-1.3-4.5-1.3-7.2 0-5.4 2-10.1 5.2-13.9-1.5-.2-3-.2-4.5-.2-26.3 0-44.9 13.4-44.9 37.2v3.6h-11.2v19.9h11.2v66.5h26.8V62.3h14.3V42.5h-14.4v-2.8z"></path><path class="prefix__st0" d="M219.8 15.7c0 8.8-6.9 15.7-15.7 15.7-8.6 0-15.7-7.2-15.7-15.7S195.3 0 204.1 0c8.8 0 15.7 7.1 15.7 15.7z"></path></svg>