<svg width="145" height="42" viewBox="0 0 145 42" fill="none" xmlns="http://www.w3.org/2000/svg"><g clip-path="url(#clip0)"><path fill-rule="evenodd" clip-rule="evenodd" d="M52.9072 6.06973C53.388 6.06185 53.8676 6.11889 54.3331 6.2393L55.0037 2.81998C54.5264 2.67829 53.7176 2.5675 52.7947 2.5675C49.9438 2.5675 47.6789 3.86756 47.0921 6.63723L46.7009 8.41812H44.3802L43.5978 12.2617H45.917L44.097 21.2935L43.9308 21.965C43.5978 23.2071 43.0925 23.5756 41.8918 23.5756C41.7007 23.5756 41.5142 23.5658 41.3359 23.5515L40.6562 27.0123C41.1596 27.086 41.6677 27.1223 42.1765 27.1208C45.0281 27.1208 47.2923 25.8207 47.8798 23.0511L47.9659 22.6584H47.9886L48.2363 21.4284L48.271 21.2709L50.088 12.2587H52.772L53.5544 8.4151H50.7262L50.8659 7.68029C51.1181 6.46691 51.7049 6.06973 52.9072 6.06973V6.06973Z" fill="#FF7100"></path><path fill-rule="evenodd" clip-rule="evenodd" d="M68.5927 8.4166H64.399L62.8335 16.2169C62.3856 18.3641 61.1841 19.2692 59.6737 19.2692C58.2486 19.2692 57.5493 18.4206 57.5493 17.3474C57.5536 17.0722 57.5817 16.7978 57.6331 16.5274L59.284 8.4166H55.0903L53.3571 16.6962C53.2584 17.1993 53.2023 17.7099 53.1895 18.2224C53.1895 21.0486 55.258 22.9983 58.7523 22.9983C60.8488 22.9983 62.0752 22.4896 63.057 21.1616L63.0849 21.2181C63.2693 21.641 63.5696 22.0034 63.9512 22.2635C64.4549 22.6026 65.0696 22.7722 65.7403 22.7722C66.4955 22.7722 66.9984 22.6878 67.3904 22.5747L68.089 19.0702C67.8857 19.1042 67.6802 19.1231 67.4742 19.1268C66.9705 19.1268 66.6631 18.759 66.6631 18.1659C66.6672 17.9561 66.6953 17.7475 66.747 17.5441L68.5927 8.4166Z" fill="#FF7100"></path><path fill-rule="evenodd" clip-rule="evenodd" d="M83.339 18.2789C83.3411 18.0598 83.3692 17.8417 83.4229 17.6293L84.0942 14.3509C84.183 13.8756 84.2295 13.3934 84.2332 12.9099C84.2332 9.8297 82.2764 8.10535 79.5094 8.10535C77.8879 8.10535 76.5459 8.75575 75.5113 10.3098L75.9032 8.41585H71.7088L68.8579 22.6599H73.0236L74.5892 14.7465C74.9245 13.0229 76.0996 11.8359 77.6644 11.8359C79.0895 11.8359 79.8726 12.5986 79.8726 13.9273C79.8821 14.1935 79.8539 14.4596 79.7888 14.7179L79.174 17.8832C79.0343 18.5894 78.9218 19.1554 78.9218 19.6355C78.9218 21.5008 80.152 22.7722 82.0529 22.7722C83.3368 22.7722 83.7023 22.6034 83.7582 22.5747L84.4575 19.1554C84.2999 19.1748 84.1412 19.1841 83.9825 19.1833C83.5626 19.1833 83.339 18.8442 83.339 18.2789Z" fill="#FF7100"></path><path fill-rule="evenodd" clip-rule="evenodd" d="M92.9663 19.0989C90.8698 19.0989 89.4999 17.7988 89.4999 15.9622C89.4999 13.8994 91.3169 11.9497 93.6648 11.9497C95.7334 11.9497 97.132 13.2211 97.132 15.0013C97.1282 17.3474 95.2546 19.0989 92.9663 19.0989ZM100.487 18.3362C100.492 18.1266 100.52 17.9182 100.57 17.7144L103.534 2.9624H99.4241L97.9703 10.1123C97.5791 9.12352 95.8738 8.16261 93.3854 8.16261C89.1646 8.16261 85.3047 11.8932 85.3047 16.3857C85.3047 20.3424 88.2122 22.886 91.9301 22.886C94.2229 22.886 95.6488 22.3773 96.7635 21.1059L96.7907 21.191C96.9779 21.6674 97.3112 22.0725 97.743 22.3486C98.2716 22.6878 98.9453 22.8573 99.6438 22.8573C100.399 22.8573 100.902 22.7722 101.294 22.6591L101.992 19.1546C101.789 19.189 101.583 19.2079 101.377 19.2112C100.82 19.2119 100.483 18.8735 100.483 18.3362H100.487Z" fill="#FF7100"></path><path fill-rule="evenodd" clip-rule="evenodd" d="M113.635 13.9273H107.037C107.566 12.5994 108.995 11.5533 110.813 11.5533C112.491 11.5533 113.637 12.5428 113.637 13.8429L113.635 13.9273ZM110.896 8.07745C106.087 8.07745 102.648 12.062 102.648 16.4144C102.648 20.371 105.442 23.0556 109.693 23.0556C111.874 23.0556 114.138 22.3773 116.011 20.512L113.858 18.0249C112.852 18.9579 111.678 19.4945 110.364 19.4945C108.128 19.4945 106.758 18.4492 106.758 16.8944C106.758 16.8379 106.758 16.697 106.786 16.6683H117.297C117.509 15.9714 117.621 15.2485 117.633 14.5204C117.633 10.8177 114.977 8.07745 110.896 8.07745V8.07745Z" fill="#FF7100"></path><path fill-rule="evenodd" clip-rule="evenodd" d="M129.849 8.24627C129.361 8.15469 128.865 8.10727 128.368 8.10458C126.69 8.10458 125.32 8.75499 124.258 10.309L124.677 8.41509H120.484L117.604 22.6591H121.798L123.082 16.2727C123.611 13.6726 125.151 12.0047 127.443 12.0047C127.443 12.0047 128.464 9.92918 130.676 8.45202L129.849 8.24627Z" fill="#FF7100"></path><path fill-rule="evenodd" clip-rule="evenodd" d="M135.523 19.0981C133.427 19.0981 132.057 17.7981 132.057 15.9614C132.057 13.8987 133.874 11.9482 136.222 11.9482C138.291 11.9482 139.689 13.2204 139.689 15.0005C139.689 17.3459 137.815 19.0981 135.523 19.0981ZM143.043 18.3354C143.049 18.1258 143.077 17.9173 143.127 17.7137L145 8.41584H140.891L140.527 10.1116C140.136 9.12201 138.431 8.1611 135.943 8.1611C131.721 8.1611 127.862 11.8917 127.862 16.385C127.862 20.3416 130.77 22.8852 134.488 22.8852C136.781 22.8852 138.206 22.3765 139.322 21.133L139.349 21.1895C139.545 21.7269 139.909 22.0939 140.356 22.3765C140.917 22.6964 141.554 22.8621 142.201 22.8566C142.956 22.8566 143.459 22.7722 143.851 22.6591L144.549 19.1546C144.345 19.189 144.14 19.2079 143.934 19.2112C143.379 19.2112 143.043 18.872 143.043 18.3354V18.3354Z" fill="#FF7100"></path><path fill-rule="evenodd" clip-rule="evenodd" d="M19.2369 17.7008C19.0731 17.5329 18.8774 17.3991 18.6612 17.3076C18.445 17.216 18.2126 17.1683 17.9778 17.1674C17.7429 17.1665 17.5102 17.2123 17.2933 17.3022C17.0764 17.3922 16.8796 17.5243 16.7145 17.691L3.75437 30.6946C1.39816 27.5669 0.133876 23.7549 0.155047 19.842C0.191297 9.98871 8.11796 2.03842 17.8586 2.07535C25.0165 2.10249 31.1579 6.43825 33.9 12.6423L24.3987 22.1753C24.3987 22.1753 24.219 22.3554 24.0121 22.3547C23.9432 22.3562 23.8748 22.3425 23.8118 22.3144C23.7489 22.2864 23.693 22.2448 23.6481 22.1926L19.2369 17.7008Z" fill="#FF9E39"></path><path fill-rule="evenodd" clip-rule="evenodd" d="M23.9961 26.9165C23.7612 26.9152 23.5289 26.8674 23.3127 26.7758C23.0964 26.6842 22.9006 26.5507 22.7365 26.3829L18.3517 21.916C18.3036 21.8592 18.2441 21.8132 18.1769 21.781C18.1097 21.7488 18.0365 21.7311 17.962 21.7291C17.8121 21.7374 17.6714 21.8039 17.5701 21.9145L6.19287 33.3294C9.37036 36.1528 13.4726 37.7195 17.7272 37.7345C27.4694 37.7706 35.3945 29.8211 35.4308 19.9708C35.4349 18.8096 35.3272 17.6507 35.109 16.5101L25.2596 26.3927C25.0942 26.5591 24.8973 26.691 24.6805 26.7809C24.4636 26.8709 24.231 26.9169 23.9961 26.9165V26.9165Z" fill="#FF7100"></path><path d="M54.9104 36.7208V37.3652C54.9104 37.3933 54.9049 37.4211 54.8941 37.4471C54.8833 37.4731 54.8675 37.4967 54.8476 37.5165C54.8277 37.5364 54.804 37.5522 54.778 37.5629C54.752 37.5737 54.7241 37.5792 54.6959 37.5792H52.6486C52.5917 37.5792 52.5371 37.5567 52.4969 37.5165C52.4567 37.4764 52.4341 37.4219 52.4341 37.3652V28.298C52.4341 28.2411 52.4567 28.1866 52.4969 28.1464C52.5371 28.1061 52.5916 28.0834 52.6486 28.0832H54.6959C54.7529 28.0834 54.8074 28.1061 54.8476 28.1464C54.8878 28.1866 54.9104 28.2411 54.9104 28.298V30.932C54.9105 30.9743 54.9232 31.0156 54.9468 31.0508C54.9704 31.0859 55.0039 31.1133 55.0431 31.1294C55.0823 31.1455 55.1254 31.1497 55.167 31.1414C55.2086 31.1331 55.2467 31.1127 55.2767 31.0827C55.5099 30.8537 55.787 30.674 56.0914 30.5542C56.3958 30.4344 56.7213 30.3771 57.0484 30.3856C58.7303 30.3856 60.1772 31.7776 60.1772 34.028V34.0536C60.1772 36.344 58.7302 37.736 57.062 37.736C55.9926 37.736 55.3666 37.2536 54.9104 36.7208V36.7208ZM57.7523 34.0679V34.0408C57.7523 33.1048 57.1005 32.4408 56.3053 32.4408C55.4972 32.4408 54.8583 33.1048 54.8583 34.0408V34.0679C54.8583 35.004 55.4972 35.668 56.3053 35.668C57.1005 35.668 57.7523 35.0168 57.7523 34.0679Z" fill="#8DC63F"></path><path d="M65.8887 30.5424H67.9633C67.998 30.5423 68.0321 30.5507 68.0629 30.5668C68.0936 30.5828 68.12 30.6061 68.1397 30.6345C68.1595 30.663 68.172 30.6958 68.1763 30.7301C68.1805 30.7645 68.1764 30.7994 68.1642 30.8318L65.6924 37.4104C65.0799 39.0632 64.4146 39.7 63.0068 39.7C62.2805 39.7045 61.5647 39.5273 60.9247 39.1845C60.8772 39.1585 60.8411 39.1157 60.8237 39.0645C60.8062 39.0133 60.8086 38.9574 60.8303 38.9079L61.4156 37.5679C61.4276 37.5415 61.4449 37.5177 61.4664 37.4982C61.4879 37.4787 61.5132 37.4638 61.5408 37.4544C61.5683 37.445 61.5975 37.4413 61.6265 37.4436C61.6555 37.4459 61.6837 37.4541 61.7094 37.4677C62.0432 37.6357 62.3619 37.736 62.59 37.736C62.7044 37.744 62.8188 37.7217 62.9218 37.6712C63.0247 37.6208 63.1124 37.5441 63.176 37.4488L60.5328 30.8355C60.5198 30.8031 60.515 30.7679 60.5188 30.7332C60.5226 30.6984 60.5349 30.6651 60.5546 30.6362C60.5743 30.6073 60.6007 30.5836 60.6317 30.5672C60.6626 30.5509 60.6971 30.5423 60.7322 30.5424H62.8407C62.8859 30.5422 62.93 30.5563 62.9666 30.5827C63.0032 30.6091 63.0306 30.6465 63.0446 30.6893L64.1925 34.1509C64.2064 34.1941 64.2336 34.2318 64.2703 34.2585C64.3071 34.2853 64.3513 34.2997 64.3968 34.2997C64.4423 34.2997 64.4866 34.2853 64.5233 34.2585C64.56 34.2318 64.5872 34.1941 64.6011 34.1509L65.6848 30.6954C65.698 30.6515 65.7249 30.613 65.7616 30.5855C65.7983 30.5579 65.8428 30.5428 65.8887 30.5424V30.5424Z" fill="#8DC63F"></path><path fill-rule="evenodd" clip-rule="evenodd" d="M102.452 37.3569H100.997C100.885 37.3569 100.771 37.2453 100.719 37.1308L100.55 36.6854L100.518 36.7102L100.466 36.7487C100.23 36.9359 99.9775 37.1012 99.7112 37.2423C99.2496 37.4303 98.7551 37.5249 98.2566 37.5204H98.0897C97.5914 37.525 97.0972 37.4305 96.6359 37.2423C96.2189 37.0284 95.8409 36.7461 95.5175 36.4073C95.2175 36.0455 94.9896 35.6298 94.8461 35.1826C94.7343 34.7372 94.6195 34.2918 94.6195 33.7906C94.6195 33.2894 94.7313 32.8448 94.8461 32.3993C95.1889 31.5426 95.8224 30.8333 96.6359 30.3954C97.0788 30.2119 97.5536 30.1172 98.0331 30.1165C98.5134 30.1114 98.9895 30.2064 99.431 30.3954C99.7318 30.5901 100.013 30.8138 100.27 31.0631V27.7817C100.274 27.7234 100.299 27.6686 100.341 27.6276C100.383 27.5867 100.438 27.5624 100.497 27.5594H102.454C102.513 27.5624 102.568 27.5867 102.61 27.6276C102.651 27.6686 102.677 27.7234 102.681 27.7817V37.1338C102.677 37.1925 102.651 37.2477 102.609 37.2889C102.567 37.33 102.511 37.3542 102.452 37.3569V37.3569ZM127.556 37.3569H125.542C125.483 37.3536 125.428 37.3288 125.386 37.287C125.344 37.2453 125.319 37.1897 125.316 37.1308V27.7817C125.32 27.7234 125.345 27.6686 125.387 27.6276C125.428 27.5867 125.484 27.5624 125.542 27.5594H127.555C127.613 27.5625 127.669 27.5869 127.71 27.6278C127.752 27.6688 127.777 27.7235 127.781 27.7817V37.1338C127.777 37.1921 127.752 37.2469 127.71 37.288C127.669 37.3291 127.613 37.3535 127.555 37.3569H127.556ZM129.512 37.3569H131.525C131.584 37.3536 131.64 37.3288 131.682 37.287C131.723 37.2453 131.748 37.1897 131.752 37.1308V27.7817C131.748 27.7234 131.722 27.6686 131.681 27.6276C131.639 27.5867 131.584 27.5624 131.525 27.5594H129.512C129.454 27.5624 129.399 27.5867 129.357 27.6276C129.315 27.6686 129.29 27.7234 129.286 27.7817V37.1338C129.29 37.1922 129.315 37.2471 129.357 37.2882C129.399 37.3293 129.454 37.3537 129.512 37.3569V37.3569ZM143.322 32.1235H144.774C144.832 32.1205 144.887 32.0962 144.929 32.0553C144.971 32.0143 144.996 31.9595 145 31.9012V30.5634C145 30.4519 144.888 30.3969 144.774 30.3969H143.319L143.093 28.7826C143.095 28.7454 143.089 28.7082 143.076 28.6734C143.063 28.6385 143.042 28.6069 143.016 28.5805C142.99 28.5542 142.958 28.5337 142.923 28.5205C142.888 28.5072 142.851 28.5015 142.814 28.5037H141.136C141.024 28.5037 140.969 28.6153 140.969 28.7298V35.0756C140.972 35.4126 141.009 35.7485 141.081 36.0779C141.192 36.4118 141.307 36.6899 141.528 36.913C141.695 37.1353 141.976 37.3026 142.311 37.4134C142.709 37.5353 143.124 37.5918 143.54 37.5807C143.802 37.588 144.065 37.5694 144.323 37.5249C144.397 37.5022 144.473 37.4848 144.549 37.4729C144.626 37.4636 144.701 37.4436 144.771 37.4134C144.883 37.4134 144.94 37.3026 144.94 37.1911L144.883 35.9664C144.886 35.9361 144.882 35.9056 144.872 35.8769C144.862 35.8483 144.845 35.8224 144.823 35.8011C144.802 35.7797 144.775 35.7636 144.746 35.7537C144.718 35.7438 144.687 35.7405 144.657 35.7441H144.545C144.439 35.7889 144.324 35.8077 144.209 35.7991C143.873 35.7991 143.594 35.6883 143.482 35.521C143.37 35.3537 143.314 35.1313 143.314 34.7975L143.322 32.1235ZM135.107 35.0183C134.993 34.8553 134.934 34.6606 134.939 34.4621H140.195V33.9051C140.193 33.3552 140.099 32.8095 139.915 32.2908C139.761 31.853 139.513 31.4541 139.188 31.1219C138.857 30.7814 138.457 30.5156 138.015 30.3426C137.552 30.1593 137.058 30.0647 136.56 30.0638C136.027 30.0702 135.498 30.1644 134.995 30.3426C134.548 30.5092 134.156 30.788 133.765 31.1219C133.424 31.4637 133.141 31.8585 132.927 32.2908C132.743 32.79 132.648 33.3175 132.647 33.8494C132.647 34.4621 132.758 34.9625 132.982 35.4079C133.128 35.8777 133.422 36.288 133.82 36.5776C134.156 36.9115 134.603 37.1338 135.104 37.3011C135.588 37.4787 136.099 37.5728 136.614 37.5792C137.285 37.5737 137.949 37.4415 138.571 37.1896C138.89 37.0177 139.19 36.8125 139.466 36.5776C139.578 36.4661 139.578 36.3545 139.466 36.243L138.459 35.2414C138.348 35.1298 138.179 35.1298 138.124 35.2414L137.621 35.5752C137.341 35.7426 137.061 35.7976 136.67 35.7976C136.46 35.7928 136.253 35.7555 136.055 35.6868C135.853 35.6279 135.664 35.5335 135.496 35.4079C135.34 35.3074 135.207 35.1745 135.107 35.0183V35.0183ZM137.62 32.0708C137.394 31.7919 137.061 31.6804 136.557 31.6804C136.348 31.6853 136.14 31.723 135.942 31.7919C135.753 31.8378 135.579 31.9342 135.44 32.0708C135.272 32.1815 135.16 32.3489 135.048 32.5154C134.984 32.6755 134.946 32.8446 134.936 33.0166H138.012C138.014 32.8408 137.98 32.6663 137.913 32.5038C137.846 32.3413 137.746 32.194 137.62 32.0708V32.0708ZM122.133 37.3569H123.586C123.645 37.3535 123.7 37.3285 123.742 37.2869C123.784 37.2452 123.809 37.1896 123.812 37.1308V30.2869C123.809 30.228 123.784 30.1725 123.742 30.1308C123.7 30.0891 123.645 30.0642 123.586 30.0608H121.909C121.797 30.0608 121.682 30.1723 121.629 30.2869L121.462 30.8988C121.235 30.7323 120.958 30.565 120.679 30.3984C120.198 30.2099 119.685 30.1153 119.168 30.1195C118.688 30.1203 118.213 30.215 117.77 30.3984C117.353 30.6122 116.975 30.8945 116.653 31.2334C116.364 31.582 116.137 31.9774 115.981 32.4024C115.683 33.3063 115.683 34.2817 115.981 35.1856C116.124 35.6332 116.352 36.0491 116.653 36.4103C116.931 36.7442 117.323 37.0223 117.715 37.2453C118.179 37.4229 118.671 37.517 119.168 37.5234H119.56C120.007 37.4677 120.398 37.4119 120.733 37.2453C121.066 37.0669 121.385 36.862 121.685 36.6326L121.852 37.1338C121.852 37.2453 121.966 37.3569 122.133 37.3569V37.3569ZM121.312 32.9751C121.23 32.8276 121.13 32.6902 121.015 32.5659C120.888 32.3904 120.713 32.2551 120.511 32.1763C120.284 32.0687 120.036 32.0119 119.785 32.0097C119.514 32.006 119.247 32.0629 119.001 32.1763C118.8 32.2556 118.626 32.3908 118.499 32.5659C118.336 32.7155 118.219 32.9088 118.163 33.1229C118.014 33.5558 118.014 34.0261 118.163 34.4591C118.218 34.6895 118.334 34.9009 118.499 35.071C118.587 35.2022 118.743 35.2971 118.887 35.3876C118.926 35.4125 118.962 35.4366 119.001 35.4629C119.247 35.5769 119.514 35.6341 119.785 35.6303C120.036 35.6281 120.284 35.571 120.511 35.4629C120.547 35.4388 120.587 35.4147 120.627 35.3876C120.771 35.2987 120.929 35.2022 121.015 35.071C121.182 34.9045 121.294 34.6814 121.406 34.4591C121.555 34.0261 121.555 33.5558 121.406 33.1229C121.376 33.0776 121.346 33.0279 121.313 32.9759L121.312 32.9751ZM113.186 37.3539C113.229 37.3515 113.271 37.3332 113.302 37.3023C113.333 37.2714 113.351 37.2302 113.354 37.1866L115.702 30.5619C115.718 30.5332 115.726 30.5008 115.725 30.468C115.725 30.4353 115.715 30.4032 115.698 30.3751C115.682 30.3469 115.658 30.3237 115.629 30.3077C115.6 30.2917 115.568 30.2835 115.535 30.2838H113.522C113.41 30.2838 113.354 30.3396 113.295 30.4504L112.066 34.7372L110.782 30.4504C110.726 30.3396 110.67 30.2838 110.555 30.2838H108.485C108.373 30.2838 108.318 30.3396 108.263 30.4504L107.032 34.7372H106.976L105.747 30.4504C105.744 30.4069 105.725 30.3658 105.694 30.3351C105.663 30.3044 105.622 30.2862 105.578 30.2838H103.454C103.286 30.2838 103.175 30.4504 103.227 30.5619L105.575 37.1866C105.632 37.2981 105.687 37.3539 105.802 37.3539H107.927C107.971 37.3513 108.012 37.3329 108.043 37.3021C108.074 37.2712 108.092 37.2301 108.095 37.1866L109.437 32.9555H109.492L110.835 37.1866C110.89 37.2981 110.946 37.3539 111.061 37.3539H113.186ZM100.005 32.6737C100.111 32.8132 100.201 32.965 100.271 33.1259C100.42 33.5589 100.42 34.0291 100.271 34.4621C100.222 34.6535 100.09 34.8457 99.9838 35.0025L99.9558 35.0439L99.9355 35.0741C99.7727 35.2351 99.5834 35.3669 99.3758 35.4637C99.1494 35.5737 98.9008 35.6308 98.649 35.6308C98.3971 35.6308 98.1485 35.5737 97.9221 35.4637C97.7147 35.3669 97.5256 35.2351 97.3632 35.0741C97.2539 34.9521 97.1699 34.8097 97.1163 34.655C97.0891 34.5917 97.0604 34.5269 97.0271 34.4621C96.8781 34.0291 96.8781 33.5589 97.0271 33.1259C97.0513 33.0791 97.0717 33.0354 97.0921 32.9932C97.1554 32.8363 97.2473 32.6924 97.3632 32.5689C97.5309 32.4024 97.6985 32.2351 97.9221 32.1793C98.1486 32.0696 98.3972 32.0127 98.649 32.0127C98.9007 32.0127 99.1493 32.0696 99.3758 32.1793C99.6024 32.2351 99.767 32.4054 99.9355 32.5689C99.9566 32.5983 99.9808 32.6352 100.005 32.6737ZM94.5674 30.3456L94.4557 32.0157C94.4557 32.1265 94.3439 32.1823 94.2291 32.1823H94.1747C94.0689 32.1368 93.9536 32.1177 93.8387 32.1265C93.5685 32.1224 93.301 32.1796 93.0563 32.2938C92.699 32.5314 92.4099 32.8576 92.2172 33.2404C92.1711 33.403 92.1522 33.5721 92.1613 33.7408V37.1368C92.1581 37.1957 92.1332 37.2514 92.0914 37.2931C92.0496 37.3348 91.9938 37.3597 91.9348 37.3629H89.9773C89.9182 37.3597 89.8625 37.3348 89.8207 37.2931C89.7789 37.2514 89.754 37.1957 89.7507 37.1368V30.5122C89.7507 30.4014 89.8625 30.3456 89.9773 30.3456H91.5436C91.601 30.3445 91.6576 30.3595 91.7069 30.389C91.7562 30.4184 91.7962 30.4611 91.8222 30.5122L91.9907 31.0134C92.2172 30.7911 92.4936 30.6237 92.8848 30.4014C92.9386 30.3763 92.9951 30.3576 93.0532 30.3456C93.1108 30.3332 93.1667 30.3145 93.2201 30.2899C93.4833 30.17 93.7708 30.1128 94.0599 30.1226H94.4013C94.5123 30.1195 94.5674 30.2311 94.5674 30.3426V30.3456ZM83.774 34.8743C83.709 34.7472 83.6719 34.6077 83.6652 34.4651H88.9207V33.9082C88.9207 33.2962 88.8641 32.795 88.6406 32.2938C88.4872 31.8558 88.2391 31.4567 87.914 31.1249C87.5787 30.7911 87.2434 30.5122 86.7956 30.3456C85.8232 29.9732 84.7471 29.9732 83.7748 30.3456C83.3087 30.5032 82.887 30.7693 82.5445 31.1219C82.1691 31.4334 81.8802 31.8359 81.7055 32.2908C81.4768 32.7783 81.3622 33.3112 81.3702 33.8494C81.3702 34.4621 81.4819 34.9625 81.7055 35.4079C81.9295 35.9104 82.2092 36.3003 82.5445 36.5776C82.919 36.903 83.3558 37.1491 83.8284 37.3011C84.3317 37.4787 84.8608 37.5727 85.3947 37.5792C86.0477 37.574 86.6934 37.4416 87.2955 37.1896C87.6228 37.0317 87.9243 36.8254 88.1897 36.5776C88.3015 36.4661 88.3015 36.3545 88.1897 36.243L87.1838 35.2414C87.072 35.1298 86.9602 35.1298 86.8484 35.2414C86.7918 35.2783 86.7427 35.3167 86.6929 35.3529C86.5841 35.4378 86.4675 35.5122 86.3447 35.5752C86.1182 35.7426 85.7851 35.7976 85.3947 35.7976C85.2235 35.7932 85.0537 35.7653 84.8902 35.7147L84.7799 35.6868C84.5781 35.6282 84.3885 35.5338 84.2203 35.4079C84.1848 35.3733 84.1448 35.3378 84.1002 35.3009C83.9974 35.2192 83.906 35.1242 83.8284 35.0183C83.8125 34.9701 83.7914 34.9211 83.7702 34.8713L83.774 34.8743ZM86.4044 32.0708C86.125 31.7919 85.7889 31.6804 85.3426 31.6804C85.1473 31.6821 84.9533 31.7115 84.7663 31.7678L84.6719 31.7919C84.4926 31.8631 84.3231 31.9568 84.1675 32.0708C84.01 32.1784 83.8923 32.3346 83.8321 32.5154C83.7274 32.662 83.6693 32.8366 83.6652 33.0166H86.7405C86.74 32.6723 86.6214 32.3385 86.4044 32.0708V32.0708ZM78.409 37.3591H80.3657C80.4248 37.3559 80.4805 37.331 80.5223 37.2893C80.5641 37.2476 80.589 37.192 80.5923 37.133V33.0143C80.5859 32.66 80.5486 32.307 80.4805 31.9592C80.3696 31.6169 80.1997 31.2966 79.9783 31.0126C79.8099 30.7345 79.5305 30.5114 79.1952 30.3449C78.8599 30.1783 78.4687 30.1188 77.9649 30.1188H77.8532C77.3502 30.1188 76.8465 30.2303 76.5104 30.3976C76.12 30.5642 75.8405 30.7315 75.6721 30.9538L75.5052 30.5084C75.4486 30.3976 75.3368 30.2861 75.225 30.2861H73.6572C73.5988 30.2893 73.5435 30.3136 73.5018 30.3545C73.4601 30.3955 73.4348 30.4502 73.4307 30.5084V37.133C73.4339 37.192 73.4588 37.2476 73.5006 37.2893C73.5424 37.331 73.5982 37.3559 73.6572 37.3591H75.614C75.673 37.3559 75.7288 37.331 75.7706 37.2893C75.8124 37.2476 75.8373 37.192 75.8405 37.133V33.5155C75.8315 33.3282 75.8501 33.1405 75.8957 32.9586C75.9677 32.7807 76.0618 32.6126 76.1758 32.4581C76.2937 32.3327 76.4248 32.2205 76.567 32.1235C76.7458 32.0549 76.9351 32.0174 77.1267 32.0127C77.3004 32.0104 77.4723 32.0483 77.6289 32.1235C77.7676 32.2047 77.8832 32.3199 77.9649 32.4581C78.078 32.6001 78.1376 32.7772 78.1333 32.9586C78.1885 33.1259 78.1885 33.2932 78.1885 33.5155V37.133C78.1921 37.1906 78.2164 37.2449 78.2569 37.286C78.2974 37.3271 78.3514 37.3523 78.409 37.3569V37.3591Z" fill="#8DC63F"></path></g><defs><clipPath id="clip0"><rect width="145" height="37.7" fill="white" transform="translate(0 2)"></rect></clipPath></defs></svg>