<svg xmlns="http://www.w3.org/2000/svg"  viewBox="0 0 100 100" width="100px" height="100px"><path fill="#f9b621" d="M78,30.5V83c0,2.76-2.24,5-5,5H27c-2.76,0-5-2.24-5-5V17c0-2.76,2.24-5,5-5h32.5v13	c0,3.04,2.46,5.5,5.5,5.5H78z"/><path fill="#fef6aa" d="M78,30.5H65c-3.04,0-5.5-2.46-5.5-5.5V12L78,30.5z"/><path fill="#fefdef" d="M64.5,50.5v21c0,2.2-1.8,4-4,4h-21c-2.2,0-4-1.8-4-4v-21c0-2.2,1.8-4,4-4h21	C62.7,46.5,64.5,48.3,64.5,50.5z M60.5,68.5v-15h-21v15H60.5z"/><path fill="#1f212b" d="M73,89H27c-3.309,0-6-2.691-6-6V17c0-3.309,2.691-6,6-6h32.5c0.266,0,0.52,0.105,0.707,0.293	l18.5,18.5C78.895,29.98,79,30.235,79,30.5V83C79,86.309,76.309,89,73,89z M27,13c-2.206,0-4,1.794-4,4v66c0,2.206,1.794,4,4,4h46	c2.206,0,4-1.794,4-4V30.914L59.086,13H27z"/><path fill="#1f212b" d="M78.5,31H65c-3.309,0-6-2.691-6-6V11.5h1V25c0,2.757,2.243,5,5,5h13.5V31z"/><path fill="#1f212b" d="M26.5,66c-0.276,0-0.5-0.224-0.5-0.5v-45c0-2.481,2.019-4.5,4.5-4.5h7c0.276,0,0.5,0.224,0.5,0.5	S37.776,17,37.5,17h-7c-1.93,0-3.5,1.57-3.5,3.5v45C27,65.776,26.776,66,26.5,66z"/><path fill="#1f212b" d="M44.5,17h-4c-0.276,0-0.5-0.224-0.5-0.5s0.224-0.5,0.5-0.5h4c0.276,0,0.5,0.224,0.5,0.5	S44.776,17,44.5,17z"/><path fill="#1f212b" d="M48.5,17h-1c-0.276,0-0.5-0.224-0.5-0.5s0.224-0.5,0.5-0.5h1c0.276,0,0.5,0.224,0.5,0.5	S48.776,17,48.5,17z"/><path fill="#1f212b" d="M69.5,84h-15c-0.276,0-0.5-0.224-0.5-0.5s0.224-0.5,0.5-0.5h15c1.93,0,3.5-1.57,3.5-3.5v-39	c0-0.276,0.224-0.5,0.5-0.5s0.5,0.224,0.5,0.5v39C74,81.981,71.981,84,69.5,84z"/><path fill="#1f212b" d="M60.5,76h-21c-2.481,0-4.5-2.019-4.5-4.5v-21c0-2.481,2.019-4.5,4.5-4.5h21	c2.481,0,4.5,2.019,4.5,4.5v21C65,73.981,62.981,76,60.5,76z M39.5,47c-1.93,0-3.5,1.57-3.5,3.5v21c0,1.93,1.57,3.5,3.5,3.5h21	c1.93,0,3.5-1.57,3.5-3.5v-21c0-1.93-1.57-3.5-3.5-3.5H39.5z"/><path fill="#1f212b" d="M60.5,69h-21c-0.276,0-0.5-0.224-0.5-0.5v-15c0-0.276,0.224-0.5,0.5-0.5h21	c0.276,0,0.5,0.224,0.5,0.5v15C61,68.776,60.776,69,60.5,69z M40,68h20V54H40V68z"/><path fill="#1f212b" d="M51.5,84h-7c-0.276,0-0.5-0.224-0.5-0.5s0.224-0.5,0.5-0.5h7c0.276,0,0.5,0.224,0.5,0.5	S51.776,84,51.5,84z"/><path fill="#1f212b" d="M41.5,84h-1c-0.276,0-0.5-0.224-0.5-0.5s0.224-0.5,0.5-0.5h1c0.276,0,0.5,0.224,0.5,0.5	S41.776,84,41.5,84z"/></svg>