<svg width="100" height="100" viewBox="0 0 100 100" fill="none" xmlns="http://www.w3.org/2000/svg">
<path d="M35.33 11.7685C33.4072 11.7685 31.6932 13.1402 31.1625 15.1053C31.1074 15.3087 31.2191 15.5198 31.4119 15.5779C31.4467 15.5871 31.4801 15.5916 31.512 15.5916C31.67 15.5916 31.815 15.4815 31.86 15.3133C32.3023 13.677 33.7291 12.5331 35.33 12.5331C35.4996 12.5331 35.6635 12.5545 35.8259 12.5775C35.8433 12.5805 35.8592 12.5821 35.8766 12.5821C36.0521 12.5821 36.2087 12.4414 36.2334 12.2502C36.2609 12.0407 36.1217 11.848 35.9231 11.8205C35.7287 11.793 35.5315 11.7685 35.33 11.7685Z" fill="#472B29"/>
<path d="M29.3036 87.9256C25.2855 87.9256 22.0156 84.5383 22.0156 80.3757V19.6243C22.0156 15.4601 25.2855 12.0743 29.3036 12.0743H59.3329L77.9865 31.4424V80.3757C77.9865 84.5398 74.7166 87.9256 70.6985 87.9256H29.3036Z" fill="#55A7F9"/>
<path d="M58.6367 32.3156L77.6122 52.326V32.4303L58.6367 32.3156Z" fill="#2D80D3"/>
<path d="M59.332 12.0743V31.5357H77.6115" fill="#AAE1E2"/>
<path d="M77.6148 32.6047H59.3354C58.7742 32.6047 58.3203 32.126 58.3203 31.5342V12.0744C58.3203 11.4825 58.7742 11.0039 59.3354 11.0039C59.8965 11.0039 60.3504 11.4825 60.3504 12.0744V30.4637H77.6134C78.1745 30.4637 78.6284 30.9424 78.6284 31.5342C78.6284 32.126 78.1745 32.6047 77.6148 32.6047Z" fill="#472B29"/>
<path d="M58.9176 13.1448L68.1095 22.6889L76.9723 31.8905V80.3757C76.9723 83.948 74.1577 86.8551 70.6993 86.8551H29.303C25.8432 86.8551 23.0301 83.948 23.0301 80.3757V19.6243C23.0301 16.052 25.8447 13.1448 29.303 13.1448H30.5095H41.92H58.9176ZM59.7499 11.0039H41.92H30.5095H29.303C24.7368 11.0039 21 14.8821 21 19.6243V80.3757C21 85.1164 24.7368 88.9961 29.303 88.9961H70.6979C75.2656 88.9961 79.0024 85.1179 79.0024 80.3757V30.9928C71.5143 23.2196 67.2366 18.7771 59.7499 11.0039Z" fill="#472B29"/>
<path d="M44.9222 18.2678H36.2219C36.0218 18.2678 35.8594 18.0966 35.8594 17.8855C35.8594 17.6745 36.0218 17.5032 36.2219 17.5032H44.9222C45.1224 17.5032 45.2848 17.6745 45.2848 17.8855C45.2848 18.0966 45.1224 18.2678 44.9222 18.2678Z" fill="#472B29"/>
<path d="M68.5318 82.4967H31.4654C29.0916 82.4967 27.1602 80.4598 27.1602 77.9564V22.0436C27.1602 19.5402 29.0916 17.5032 31.4654 17.5032H33.3229C33.523 17.5032 33.6854 17.6745 33.6854 17.8855C33.6854 18.0966 33.523 18.2678 33.3229 18.2678H31.4654C29.4919 18.2678 27.8852 19.9607 27.8852 22.0436V77.9579C27.8852 80.0392 29.4904 81.7336 31.4654 81.7336H68.5333C70.5068 81.7336 72.1135 80.0407 72.1135 77.9579V60.7048C72.1135 60.4937 72.2759 60.3225 72.476 60.3225C72.6761 60.3225 72.8385 60.4937 72.8385 60.7048V77.9564C72.837 80.4598 70.9056 82.4967 68.5318 82.4967Z" fill="#472B29"/>
<path d="M72.4797 58.0286C72.2796 58.0286 72.1172 57.8573 72.1172 57.6463V50C72.1172 49.789 72.2796 49.6177 72.4797 49.6177C72.6798 49.6177 72.8422 49.789 72.8422 50V57.6463C72.8422 57.8573 72.6798 58.0286 72.4797 58.0286Z" fill="#472B29"/>
<path d="M72.4797 46.6861C72.2796 46.6861 72.1172 46.5148 72.1172 46.3038V42.863C72.1172 42.6519 72.2796 42.4807 72.4797 42.4807C72.6798 42.4807 72.8422 42.6519 72.8422 42.863V46.3038C72.8422 46.5148 72.6798 46.6861 72.4797 46.6861Z" fill="#472B29"/>
<path d="M34.0508 50H65.9521V53.0585H34.0508V50ZM34.0508 56.117H65.9521V59.1756H34.0508V56.117ZM34.0508 62.2341H65.9521V65.2926H34.0508V62.2341ZM34.0508 68.3511H54.3516V71.4096H34.0508V68.3511Z" fill="white"/>
<path d="M65.9552 53.4408H34.0539C33.8538 53.4408 33.6914 53.2695 33.6914 53.0585V50C33.6914 49.7889 33.8538 49.6176 34.0539 49.6176H65.9552C66.1553 49.6176 66.3177 49.7889 66.3177 50V53.0585C66.3177 53.2695 66.1568 53.4408 65.9552 53.4408ZM34.4164 52.6762H65.5927V50.3823H34.4164V52.6762Z" fill="#472B29"/>
<path d="M65.9552 59.5579H34.0539C33.8538 59.5579 33.6914 59.3866 33.6914 59.1755V56.117C33.6914 55.906 33.8538 55.7347 34.0539 55.7347H65.9552C66.1553 55.7347 66.3177 55.906 66.3177 56.117V59.1755C66.3177 59.3866 66.1568 59.5579 65.9552 59.5579ZM34.4164 58.7932H65.5927V56.4993H34.4164V58.7932Z" fill="#472B29"/>
<path d="M65.9552 65.6749H34.0539C33.8538 65.6749 33.6914 65.5036 33.6914 65.2926V62.2341C33.6914 62.023 33.8538 61.8517 34.0539 61.8517H65.9552C66.1553 61.8517 66.3177 62.023 66.3177 62.2341V65.2926C66.3177 65.5036 66.1568 65.6749 65.9552 65.6749ZM34.4164 64.9103H65.5927V62.6164H34.4164V64.9103Z" fill="#472B29"/>
<path d="M54.3548 71.7919H34.0539C33.8538 71.7919 33.6914 71.6206 33.6914 71.4096V68.3511C33.6914 68.14 33.8538 67.9688 34.0539 67.9688H54.3548C54.5549 67.9688 54.7173 68.14 54.7173 68.3511V71.4096C54.7173 71.6206 54.5563 71.7919 54.3548 71.7919ZM34.4164 71.0273H53.9922V68.7334H34.4164V71.0273Z" fill="#472B29"/>
</svg>
