<svg width="392" height="321" viewBox="0 0 392 321" fill="none" xmlns="http://www.w3.org/2000/svg">
<path d="M305.051 248.376H298.134H291.046L286.256 277.707C286.155 277.721 286.053 277.727 285.949 277.741C275.366 279.123 267.154 287.872 267.245 297.656C267.285 301.747 268.706 304.943 271.255 307.563C273.557 309.93 276.693 311.213 279.859 311.213C281.098 311.213 282.34 311.017 283.539 310.613C289.243 308.683 291.137 303.982 292.025 299.679C292.025 299.682 292.021 299.689 292.021 299.695C292.278 294.891 289.665 290.147 284.683 287.339L283.106 297.116C282.6 299.891 281.942 301.549 280.531 302.026C279.687 302.311 278.647 302.016 277.945 301.293C277.041 300.362 276.511 299.324 276.494 297.57C276.447 292.68 280.362 288.841 284.683 287.339C286.04 286.858 287.451 286.632 289.027 286.632C290.627 286.632 292.312 286.934 293.851 287.441C299.687 288.794 303.225 294.875 304.099 301.459L304.612 305.149H314.323L305.051 248.376ZM295.09 278.337L297.874 257.347H297.959H298.219L301.328 280.771C299.353 279.713 297.253 278.888 295.09 278.337ZM388.258 264.21V305.146H378.566V264.21H388.258ZM359.971 319.326C372.696 319.326 373.679 312.201 373.679 302.132L373.763 264.214H368.747C366.941 264.214 364.727 265.543 364.575 267.257L364.457 268.58L363.988 267.333C363.053 264.857 360.7 263.547 357.182 263.547C353.648 263.547 351.039 264.88 349.425 267.506C347.856 270.059 347.528 273.361 347.528 275.682V291.599C347.528 295.548 348.116 298.455 349.324 300.484C350.793 302.951 353.169 304.151 356.595 304.151C359.836 304.151 362.286 302.798 363.495 300.342L364.072 299.171V300.471V305.03C364.072 309.038 363.819 311.876 360.561 311.876C359.815 311.876 357.388 311.627 357.388 308.428V308.312H347.613V308.511C347.613 311.621 348.47 314.124 350.161 315.947C352.234 318.189 355.535 319.326 359.971 319.326ZM363.903 289.945C363.903 293.847 363.343 295.962 360.392 295.962C357.598 295.962 357.22 293.34 357.22 290.773V276.514C357.22 273.301 358.394 271.74 360.815 271.74C363.535 271.74 363.903 274.362 363.903 276.928V289.945ZM388.764 255.209C388.764 258.11 386.414 260.381 383.414 260.381C380.46 260.381 378.148 258.11 378.148 255.209C378.148 252.262 380.46 249.954 383.414 249.954C386.364 249.954 388.764 252.311 388.764 255.209ZM327.107 277.426V305.149H317.331L317.247 264.214H322.681C324.548 264.214 326.701 265.507 326.938 267.433L327.046 268.315L327.501 267.549C329.078 264.897 331.63 263.551 335.09 263.551C340.656 263.551 343.481 267.075 343.481 274.031V305.152H333.79V276.182C333.79 273.235 332.75 271.74 330.701 271.74C328.048 271.74 327.107 273.228 327.107 277.426Z" fill="#AAAAA9"/>
<path d="M292.021 299.695C292.511 297.643 293.645 289.762 293.848 287.442C292.312 286.938 290.624 286.633 289.024 286.633C287.448 286.633 286.037 286.861 284.68 287.339C289.665 290.147 292.278 294.891 292.021 299.695Z" fill="#AAAAA9"/>
<g clip-path="url(#clip0_1432_696)">
<path d="M29.2411 6.22236C29.2411 1.98236 25.2151 0.922363 22.0368 0.922363V1.55836C23.9438 1.55836 25.427 2.19436 25.427 3.67836C25.427 4.52636 24.7914 5.79836 22.8843 5.79836C21.4011 5.79836 18.2227 4.95036 15.8919 4.10236C13.1373 3.04236 10.5946 2.19436 8.47568 2.19436C4.23784 2.19436 1.27135 5.37436 1.27135 8.97836C1.27135 12.1584 3.60216 13.2184 4.44973 13.6424L4.66162 13.2184C4.23784 12.7944 3.60216 12.3704 3.60216 11.0984C3.60216 10.2504 4.44973 8.76636 6.56865 8.76636C8.47568 8.76636 11.0184 9.61436 14.4086 10.6744C17.3751 11.5224 20.5535 12.1584 22.2486 12.3704V18.9424L19.0703 21.6984V21.9104L22.2486 24.6664V33.7824C20.5535 34.8424 18.6465 35.0544 16.9514 35.0544C13.773 35.0544 11.0184 34.2064 8.68757 31.6624L17.3751 27.4224V12.7944L6.78054 17.4584C7.62811 14.7024 9.95892 12.7944 12.2897 11.5224L12.0778 10.8864C5.72108 12.5824 0 18.5184 0 25.7264C0 34.2064 6.99243 40.5664 14.8324 40.5664C23.3081 40.5664 28.8173 33.7824 28.8173 26.7864H28.3935C27.1222 29.5424 25.2151 32.0864 22.8843 33.3584V24.6664L26.2746 21.9104V21.6984L22.8843 18.9424V12.3704C26.0627 12.3704 29.2411 10.2504 29.2411 6.22236ZM10.8065 29.5424L8.26378 30.8144C6.78054 28.9064 5.93297 26.3624 5.93297 22.7584C5.93297 21.2744 5.93297 19.5784 6.35676 18.3064L10.8065 16.3984V29.5424V29.5424ZM33.267 34.4184L30.5124 36.5384L30.9362 36.9624L32.2076 35.9024L36.8692 40.1424L43.2259 35.9024L43.0141 35.4784L41.3189 36.5384L39.2 34.4184V20.0024L40.8951 18.7304L44.4973 21.6984V34.6304C44.4973 42.6864 42.8022 43.9584 39.2 45.2304V45.8664C45.133 46.0784 50.6422 44.1704 50.6422 33.7824V19.7904L52.5492 18.3064L52.1254 17.8824L50.4303 19.1544L45.133 14.7024L39.2 19.1544V1.77036H38.7762L31.36 6.85836V7.28236C32.2076 7.70636 33.4789 8.13036 33.4789 10.4624L33.267 34.4184V34.4184ZM72.0432 32.0864L66.7459 36.1144L61.4486 31.8744V29.3304L71.4076 22.5464V22.3344L66.3222 14.7024L55.3038 20.6384V34.6304L53.1849 36.3264L53.6086 36.7504L55.5157 35.2664L62.72 40.5664L72.2551 32.9344L72.0432 32.0864V32.0864ZM61.4486 28.4824V18.0944L61.8724 17.8824L66.5341 25.3024L61.4486 28.4824ZM112.515 4.31436C112.515 3.67836 112.303 3.04236 112.091 2.40636H111.667C111.031 4.10236 110.184 4.95036 108.065 4.95036C106.158 4.95036 104.886 3.89036 104.039 3.04236L97.8941 10.0384L98.3178 10.4624L100.437 8.55436C101.708 9.61436 102.768 10.4624 105.734 10.6744V28.2704L93.2324 6.85836C92.173 5.16236 90.6897 2.83036 87.7232 2.83036C84.333 2.83036 81.3665 5.79836 81.7903 10.4624H82.4259C82.6378 9.19036 83.2735 7.70636 84.7568 7.70636C85.8162 7.70636 86.8757 8.76636 87.5113 9.82636V16.8224C83.6973 16.8224 81.1546 18.5184 81.1546 21.6984C81.1546 23.3944 82.0022 25.9384 84.5449 26.5744V26.1504C84.1211 25.7264 83.9092 25.3024 83.9092 24.6664C83.9092 23.6064 84.7568 22.7584 86.24 22.7584H87.2995V31.6624C82.8497 31.6624 79.2476 34.2064 79.2476 38.4464C79.2476 42.4744 82.6378 44.3824 86.4519 44.1704V43.7464C84.1211 43.5344 83.0616 42.4744 83.0616 40.9904C83.0616 39.0824 84.333 38.2344 86.0281 38.2344C87.7232 38.2344 89.2065 39.2944 90.2659 40.5664L96.4108 33.7824L95.987 33.3584L94.5038 35.0544C92.173 32.9344 90.9016 32.2984 88.147 31.8744V10.6744L105.098 40.3544H106.37V10.6744C109.548 10.4624 112.515 7.91836 112.515 4.31436V4.31436ZM127.983 32.0864L122.685 36.1144L117.388 31.8744V29.3304L127.347 22.5464V22.3344L122.262 14.7024L111.243 20.6384V34.6304L109.124 36.3264L109.548 36.7504L111.455 35.2664L118.659 40.5664L128.195 32.9344L127.983 32.0864V32.0864ZM117.388 28.4824V18.0944L117.812 17.8824L122.474 25.3024L117.388 28.4824V28.4824ZM162.521 17.0344L161.038 18.0944L157.012 14.7024L152.35 18.9424L154.257 20.8504V36.7504L149.172 33.5704V20.4264L150.867 19.3664L145.994 14.7024L141.332 18.9424L143.239 20.8504V36.1144L142.603 36.5384L138.154 33.3584V20.6384C138.154 17.6704 136.67 16.8224 134.975 15.7624C133.492 14.7024 132.644 14.0664 132.644 12.5824C132.644 11.3104 133.916 10.6744 134.551 10.2504V9.82636C132.856 9.82636 128.406 11.5224 128.406 15.5504C128.406 17.6704 129.466 18.5184 130.525 19.5784C131.585 20.6384 132.644 21.4864 132.644 23.3944V35.6904L130.314 37.3864L130.737 37.8104L132.856 36.1144L137.73 40.3544L143.027 36.7504L148.96 40.3544L160.19 33.7824V19.5784L162.945 17.4584L162.521 17.0344V17.0344ZM201.933 5.37436L199.814 7.28236L195.152 3.04236L188.16 8.13036V3.46636H187.524L187.736 37.8104C187.101 37.8104 185.194 37.3864 183.71 36.9624L183.286 8.34236C183.286 6.22236 181.803 3.25436 177.989 3.25436C174.175 3.25436 171.632 6.22236 171.632 9.19036H172.268C172.48 7.91836 173.116 6.85836 174.387 6.85836C175.658 6.85836 176.718 7.70636 176.718 10.4624V18.7304C172.904 18.9424 170.573 21.0624 170.573 23.8184C170.573 25.5144 171.421 28.0584 173.963 28.0584V27.6344C173.116 27.2104 172.904 26.5744 172.904 26.1504C172.904 24.8784 173.963 24.4544 175.658 24.4544H176.506V37.5984C173.328 38.6584 172.056 40.9904 172.056 43.5344C172.056 47.1384 174.811 49.6824 179.049 49.6824C182.015 49.6824 184.558 49.2584 187.101 48.6224C189.219 48.1984 191.974 47.5624 193.245 47.5624C194.941 47.5624 195.576 48.4104 195.576 49.4704C195.576 50.9544 194.941 51.5904 194.093 51.8024V52.2264C197.483 51.5904 199.602 49.4704 199.602 46.2904C199.602 43.1104 196.424 41.2024 193.034 41.2024C191.338 41.2024 187.736 41.8384 185.194 42.2624C182.227 42.8984 179.261 43.3224 178.413 43.3224C176.93 43.3224 175.235 42.6864 175.235 40.5664C175.235 38.8704 176.718 37.3864 180.32 37.3864C182.227 37.3864 184.558 37.5984 186.889 38.2344C189.431 38.8704 191.762 39.5064 193.881 39.5064C197.059 39.5064 199.814 38.4464 199.814 33.9944V7.91836L202.357 5.79836L201.933 5.37436V5.37436ZM193.245 18.3064C192.61 18.9424 191.762 19.5784 190.703 19.5784C189.643 19.5784 188.584 18.9424 188.16 18.3064V8.97836L190.279 7.49436L193.245 10.2504V18.3064ZM193.245 24.6664C192.822 24.2424 191.762 23.6064 190.703 23.6064C189.643 23.6064 188.584 24.2424 188.16 24.6664V19.1544C188.584 19.5784 189.643 20.2144 190.703 20.2144C191.762 20.2144 192.822 19.5784 193.245 19.1544V24.6664ZM193.245 34.6304C193.245 36.3264 192.186 38.0224 189.855 38.0224H188.16V25.5144C188.584 25.0904 189.643 24.4544 190.703 24.4544C191.762 24.4544 192.61 25.0904 193.245 25.5144V34.6304V34.6304ZM222.275 19.5784L215.494 14.7024L205.111 20.6384V34.4184L202.992 36.1144L203.204 36.5384L204.899 35.2664L211.68 40.3544L222.275 33.9944V19.5784V19.5784ZM210.832 32.9344V17.6704L216.13 21.4864V36.5384L210.832 32.9344V32.9344ZM242.404 15.1264H241.981C241.345 15.5504 240.709 15.9744 240.074 15.9744C239.226 15.9744 238.166 15.5504 237.743 14.9144H237.319L233.717 18.9424L230.115 14.9144L223.758 19.1544L223.97 19.5784L225.665 18.5184L227.784 20.8504V34.2064L225.029 36.3264L225.453 36.7504L226.724 35.6904L231.81 39.9304L238.378 35.4784L238.166 35.0544L236.259 36.1144L233.717 33.9944V19.1544C234.776 20.2144 236.048 21.2744 237.531 21.2744C240.497 21.4864 242.192 18.5184 242.404 15.1264V15.1264ZM267.831 35.4784L260.627 40.3544L250.88 25.5144L257.872 14.7024H258.296C259.144 15.5504 260.415 16.3984 261.898 16.3984C263.382 16.3984 264.441 15.5504 265.077 14.7024H265.501C265.289 18.9424 262.322 21.4864 260.203 21.4864C258.084 21.4864 257.025 20.4264 255.754 19.7904L255.118 20.8504L265.712 36.5384L267.831 35.2664V35.4784V35.4784ZM244.523 34.4184L241.769 36.5384L242.192 36.9624L243.464 35.9024L248.125 40.1424L254.482 35.9024L254.058 35.4784L252.363 36.5384L250.244 34.4184V1.77036H250.032L242.404 6.85836V7.28236C243.252 7.70636 244.523 7.91836 244.523 10.4624V34.4184V34.4184ZM303.005 6.22236C303.005 1.98236 298.979 0.922363 295.801 0.922363V1.55836C297.708 1.55836 299.191 2.19436 299.191 3.67836C299.191 4.52636 298.556 5.79836 296.649 5.79836C295.165 5.79836 291.987 4.95036 289.656 4.10236C286.902 3.25436 284.359 2.40636 282.24 2.40636C278.002 2.40636 275.036 5.58636 275.036 9.19036C275.036 12.3704 277.366 13.4304 278.214 13.8544L278.426 13.4304C277.79 13.0064 277.155 12.5824 277.155 11.3104C277.155 10.4624 278.002 8.97836 280.121 8.97836C282.028 8.97836 284.571 9.82636 287.961 10.8864C290.928 11.7344 294.106 12.3704 295.801 12.5824V19.1544L292.623 21.9104V22.1224L295.801 24.8784V33.9944C294.106 35.0544 292.199 35.2664 290.504 35.2664C287.325 35.2664 284.571 34.4184 282.24 31.8744L290.928 27.6344V12.7944L280.333 17.4584C281.392 14.7024 283.723 12.7944 285.842 11.3104L285.63 10.8864C279.274 12.5824 273.552 18.3064 273.552 25.5144C273.552 33.9944 280.545 40.3544 288.385 40.3544C296.861 40.3544 302.37 33.5704 302.37 26.5744H301.946C300.675 29.3304 298.768 31.8744 296.437 33.1464V24.4544L299.827 21.6984V21.4864L296.649 18.7304V12.3704C299.827 12.3704 303.005 10.2504 303.005 6.22236V6.22236ZM284.571 29.5424L282.028 30.8144C280.545 28.9064 279.697 26.3624 279.697 22.7584C279.697 21.2744 279.909 19.5784 280.333 18.3064L284.783 16.3984L284.571 29.5424V29.5424ZM310.422 4.10236H310.21L305.972 7.70636V7.91836L309.574 11.9464H309.998L314.236 8.34236V8.13036L310.422 4.10236V4.10236ZM316.778 35.4784L315.083 36.5384L312.964 34.4184V19.7904L315.083 18.3064L314.659 17.8824L313.176 19.1544L309.362 14.7024L303.217 18.9424L303.641 19.5784L305.124 18.5184L307.031 20.8504V34.6304L304.277 36.7504L304.489 37.1744L305.972 36.1144L310.634 40.3544L316.99 36.1144L316.778 35.4784V35.4784ZM352.164 35.2664L350.681 36.3264L348.35 34.2064V19.7904L350.469 18.0944L350.045 17.6704L348.35 19.1544L343.477 14.7024L337.12 19.1544L332.246 14.7024L326.314 19.1544L322.499 14.7024L316.355 18.9424L316.566 19.5784L318.05 18.5184L320.169 20.8504V34.6304L318.474 36.3264L323.347 40.3544L328.009 36.1144L326.102 34.2064V19.7904L328.009 18.5184L331.187 21.4864V34.2064L329.492 35.9024L334.365 39.9304L339.027 35.6904L337.12 33.7824V19.7904L338.815 18.7304L342.205 21.6984V34.4184L340.722 35.9024L345.596 40.3544L352.164 35.9024V35.2664V35.2664ZM370.599 32.0864L365.302 36.1144L360.004 31.8744V29.3304L369.963 22.5464V22.3344L364.878 14.7024L353.859 20.6384V35.0544L361.276 40.3544L370.811 32.7224L370.599 32.0864V32.0864ZM360.004 28.4824V18.0944L360.428 17.8824L365.09 25.3024L360.004 28.4824V28.4824ZM389.881 26.5744L385.855 23.3944C388.61 21.0624 389.669 17.8824 389.669 15.7624V14.4904H389.245C388.822 15.5504 387.974 16.6104 386.279 16.6104C384.584 16.6104 383.524 15.7624 382.465 14.4904L372.93 19.7904V27.4224L376.532 30.1784C372.93 33.3584 372.294 35.4784 372.294 37.1744C372.294 39.2944 373.354 40.7784 375.049 41.4144L375.261 40.9904C374.837 40.5664 374.413 40.3544 374.413 39.2944C374.413 38.6584 375.261 37.5984 376.956 37.5984C379.075 37.5984 380.346 39.0824 380.982 39.7184L390.093 34.2064V26.5744H389.881V26.5744ZM387.55 20.2144C386.067 22.7584 382.889 25.3024 380.982 26.5744L378.651 24.6664V17.2464C379.498 19.3664 381.829 21.0624 384.16 21.0624C385.643 21.0624 386.491 20.8504 387.55 20.2144V20.2144ZM383.948 37.1744C382.889 34.8424 380.346 33.1464 377.803 33.1464C377.168 33.1464 375.472 33.1464 373.777 34.2064C374.837 32.5104 377.591 29.5424 381.193 27.4224L383.736 29.5424L383.948 37.1744V37.1744Z" fill="#AAAAA9"/>
</g>
<g clip-path="url(#clip1_1432_696)">
<path d="M249.119 110.697C245.272 110.697 242.016 113.929 242.016 117.754C242.016 121.611 245.269 124.875 249.119 124.875C252.934 124.875 256.158 121.618 256.158 117.754C256.158 113.929 252.934 110.697 249.119 110.697" fill="#AAAAA9"/>
<path d="M350.306 100.849C349.399 99.9948 348.364 99.2881 347.239 98.7542C346.079 98.1906 344.806 97.8996 343.517 97.9032C342.561 97.8936 341.613 98.0945 340.742 98.4918C339.894 98.885 339.469 99.5615 339.469 100.522C339.469 101.436 339.937 102.09 340.872 102.485C341.808 102.88 343.321 103.316 345.41 103.795C346.667 104.068 347.9 104.441 349.099 104.909C350.308 105.371 351.441 106.01 352.463 106.806C353.459 107.587 354.282 108.568 354.878 109.686C355.487 110.821 355.791 112.174 355.792 113.743C355.792 115.795 355.379 117.53 354.552 118.948C353.758 120.331 352.651 121.509 351.32 122.385C349.952 123.275 348.439 123.918 346.849 124.283C345.225 124.672 343.56 124.87 341.89 124.872C339.236 124.873 336.6 124.442 334.083 123.596C331.538 122.744 329.416 121.49 327.718 119.831L333.724 113.482C334.727 114.565 335.921 115.453 337.246 116.101C338.625 116.797 340.148 117.155 341.691 117.148C342.587 117.143 343.47 116.93 344.271 116.527C345.119 116.113 345.543 115.381 345.543 114.334C345.543 113.33 345.021 112.588 343.976 112.105C342.932 111.622 341.3 111.121 339.08 110.6C337.925 110.332 336.79 109.982 335.685 109.553C334.583 109.135 333.557 108.537 332.649 107.785C331.742 107.026 330.998 106.091 330.462 105.036C329.896 103.946 329.613 102.637 329.613 101.109C329.613 99.145 330.027 97.4754 330.854 96.101C331.656 94.7521 332.749 93.6002 334.052 92.7296C335.382 91.8468 336.849 91.1941 338.394 90.7988C339.939 90.3902 341.529 90.1813 343.126 90.1774C345.555 90.1763 347.968 90.5627 350.276 91.3223C352.603 92.0866 354.573 93.2321 356.184 94.7595L350.307 100.849H350.306ZM378.051 90.3136C374.835 90.3136 372.121 91.2566 370.074 93.0564V76.0576H359.985V123.895H370.072V106.034C370.072 101.527 372.991 99.9212 375.722 99.9212C379.97 99.9212 380.862 103.211 380.862 105.97V123.895H390.957V103.285C390.957 95.6486 385.65 90.3142 378.048 90.3142L378.051 90.3136ZM295.729 95.752C297.645 93.9188 299.925 92.5131 302.421 91.6277C304.923 90.7203 307.563 90.2563 310.224 90.2563C312.965 90.2563 315.283 90.5939 317.176 91.2703C319.069 91.9456 320.603 92.9937 321.779 94.4123C322.954 95.8309 323.814 97.62 324.358 99.7802C324.902 101.94 325.174 104.504 325.174 107.471V123.825H315.284V120.429C309.02 128.283 295.048 125.368 295.048 114.472C295.048 112.5 296.479 104.589 307.62 103.577C309.832 103.376 311.802 103.476 315.057 103.476V102.951C315.057 101.338 314.491 100.149 313.359 99.384C312.227 98.6191 310.834 98.2379 309.181 98.2391C307.658 98.2391 306.154 98.5737 304.774 99.2203C303.359 99.8752 302.466 100.439 301.465 101.355L295.729 95.752V95.752ZM315.381 109.694H311.429C308.205 109.694 306.446 111.056 305.925 111.62C305.385 112.184 305.09 112.94 305.104 113.722C305.089 114.224 305.223 114.719 305.488 115.145C305.735 115.532 306.069 115.856 306.462 116.092C306.882 116.339 307.342 116.51 307.821 116.596C308.306 116.692 308.799 116.742 309.293 116.744C311.262 116.744 312.769 116.202 313.813 115.116C314.857 114.03 315.379 112.559 315.378 110.703V109.694H315.381V109.694ZM281.394 76.0002V93.0295C279.172 91.1759 276.442 90.2383 273.188 90.2383C264.159 90.2383 257.348 97.629 257.348 107.428C257.348 117.227 264.157 124.854 273.188 124.854C276.462 124.854 279.514 123.74 281.566 121.698V123.825H291.482V76.0002H281.394ZM282.421 110.674C282.054 111.682 281.51 112.615 280.813 113.428C280.114 114.239 279.26 114.901 278.301 115.376C277.32 115.867 276.204 116.112 274.954 116.112C273.658 116.112 272.519 115.866 271.535 115.373C270.582 114.904 269.737 114.241 269.055 113.426C268.377 112.604 267.865 111.657 267.549 110.638C267.219 109.61 267.051 108.536 267.051 107.455C267.051 106.383 267.22 105.318 267.553 104.299C267.867 103.295 268.383 102.366 269.068 101.569C269.754 100.772 270.594 100.124 271.538 99.6643C272.519 99.1725 273.66 98.9263 274.958 98.9257C276.207 98.9257 277.324 99.1719 278.307 99.6643C279.265 100.139 280.119 100.801 280.819 101.612C281.515 102.425 282.06 103.358 282.427 104.365C283.186 106.401 283.186 108.643 282.427 110.679L282.421 110.674V110.674Z" fill="#AAAAA9"/>
</g>
<g clip-path="url(#clip2_1432_696)">
<path d="M13.9867 165.162V180.682C13.9867 180.682 19.4115 180.682 22.3148 180.46C24.598 180.057 25.0182 179.835 25.4385 177.533L26.279 174.162H28.762L28.3418 181.53L28.5622 189.078H26.0586L25.4385 186.13C24.8183 184.033 23.9778 183.607 22.3148 183.405C20.234 183.183 13.9867 183.183 13.9867 183.183V196.2C13.9867 198.704 15.2474 199.773 18.1507 199.773H26.8991C29.6025 199.773 32.3034 199.551 33.987 195.575L36.2497 190.53H38.3509C38.1305 191.579 37.0902 200.822 36.8903 202.901C36.8903 202.901 28.9824 202.7 25.6588 202.7H10.6631L1.71484 202.901V200.62L4.61816 199.975C6.71941 199.551 7.33953 198.926 7.33953 197.249C7.33953 197.249 7.55991 191.579 7.55991 182.131C7.55991 172.707 7.33953 167.034 7.33953 167.034C7.33953 165.156 6.71941 164.733 4.61816 164.309L1.71484 163.689V161.387L10.4632 161.568H27.1195C30.443 161.568 36.0472 160.964 36.0472 160.964C36.0472 160.964 35.8473 164.516 35.627 172.912H33.3438L32.5033 169.964C31.6833 166.19 30.4405 164.312 28.1393 164.312H15.0475C13.9867 164.314 13.9867 164.516 13.9867 165.162ZM47.6989 166.817H50.2025V175.637L58.751 175.213L58.3307 179.21L50.0026 178.564V194.105C50.0026 198.505 51.4632 200.199 53.9668 200.199C56.2295 200.199 57.9105 198.928 58.5306 197.879L59.7708 199.352C58.5306 202.279 55.0072 203.751 51.6631 203.751C47.5195 203.751 44.155 201.248 44.155 196.425V178.783H39.1888V176.686C43.3555 176.262 46.4587 173.738 47.6989 166.817ZM65.6159 193.88L67.2764 197.877C67.8965 199.551 69.3572 201.248 72.6807 201.248C76.2247 201.248 77.6853 199.352 77.6853 197.05C77.6853 189.905 63.7325 192.005 63.7325 182.356C63.7325 176.908 68.0964 174.363 73.7211 174.363C76.2247 174.363 79.9685 174.787 81.8493 175.634C81.4291 177.732 81.2087 180.457 81.2087 182.558L79.1459 182.759L77.6853 178.561C77.265 177.533 75.584 176.683 73.5212 176.683C71.0177 176.683 68.5167 177.732 68.5167 180.457C68.5167 186.957 82.8897 185.503 82.8897 195.151C82.8897 200.62 78.1055 203.547 72.2605 203.547C67.8965 203.547 63.5121 201.853 63.5121 201.853C63.9323 199.349 63.7325 196.627 63.5121 193.88H65.6159V193.88ZM81.8519 214.023C82.472 211.721 82.8923 208.797 83.3125 206.051L85.5957 205.849L86.4362 210.248C86.6361 211.297 87.2562 212.145 88.9193 212.145C91.6227 212.145 95.1667 210.471 98.5082 204.596C97.027 201.023 92.6631 189.499 88.6989 180.68C87.6585 178.36 87.4587 178.156 86.016 177.732L84.9551 177.329V175.211L91.2204 175.433L98.9079 175.009V177.109L97.027 177.533C95.5664 177.735 94.9642 178.561 94.9642 179.411C94.9642 179.633 94.9642 179.835 95.1641 180.259C95.5638 181.53 98.9079 190.956 101.411 197.252C103.474 192.852 107.438 182.984 108.059 181.307C108.279 180.46 108.479 180.259 108.479 179.633C108.479 178.564 107.859 177.939 106.416 177.536L104.935 177.109V175.012L110.78 175.213L116.184 175.012V177.109L115.144 177.936C113.063 178.783 112.843 178.985 112.02 180.68L102.872 202.274C97.4473 214.666 91.8226 215.715 87.8763 215.715C85.3753 215.717 83.4945 215.072 81.8519 214.023Z" fill="#AAAAA9"/>
</g>
<g clip-path="url(#clip3_1432_696)">
<path d="M208.527 92.5432L207.927 99.5727H204.991C200.304 99.5727 197.867 103.247 197.867 106.768V122.644H189.559V92.5432H197.428L197.607 96.3003C199.258 93.7239 202.148 92.5432 205.711 92.5432H208.527ZM150.924 122.644H142.608V106.731C142.608 103.399 142.314 99.2044 137.52 99.2044C132.903 99.2044 131.064 102.462 131.064 106.256V122.644H122.75V92.5429H130.458L130.634 96.3911C132.286 93.8147 135.363 91.8086 139.902 91.8086C148.28 91.8086 150.924 97.6574 150.924 103.744V122.644ZM119.124 115.613L118.543 122.462C116.549 122.985 114.779 123.172 112.637 123.172C104.801 123.172 102.529 119.659 102.529 112.599V84.0546H110.844V92.5436H119.118L118.543 99.5721H110.844V111.988C110.844 114.821 111.639 116.351 114.611 116.351C115.903 116.351 117.341 116.199 119.124 115.613V115.613ZM99.7985 92.5432L99.1546 99.5727H96.8951C92.2167 99.5727 89.89 103.242 89.89 106.768V122.644H81.574V92.5432H89.4474L89.6114 96.3003C91.2718 93.7239 94.1613 92.5432 97.729 92.5432H99.7985ZM44.0495 119.309C38.4095 122.259 32.776 123.961 25.3349 123.75C11.5401 123.338 1.58789 114.963 1.58789 100.816C1.58789 86.7319 11.6361 77.7328 25.3415 77.5215C32.2887 77.4176 38.5055 79.1413 43.3646 83.3338L37.5113 89.1234C34.5045 86.6171 30.0804 85.1522 24.7936 85.3864C16.1682 85.779 10.9708 91.9075 10.8562 100.334C10.7434 109.463 16.4692 115.755 25.4197 115.984C29.6313 116.087 32.6484 115.534 35.2592 114.388V105.056H25.9564L26.5844 97.4028H44.0495V119.309ZM185.845 110.454H163.048C163.697 114.301 166.79 116.615 170.641 116.719C174.384 116.819 176.479 115.713 179.217 113.002L184.643 117.047C180.788 121.69 176.16 123.38 170.889 123.38C161.618 123.38 154.673 117.042 154.673 107.593C154.673 98.1537 161.584 91.8084 170.543 91.8084C180.417 91.8084 185.845 97.6572 185.845 108.039V110.454ZM177.515 104.161C177.26 100.358 174.346 97.9542 170.333 98.1072C166.294 98.2566 163.605 100.828 163.048 104.161H177.515ZM76.3391 102.933V122.644H69.008L68.8263 119.676C66.577 122.4 62.9254 123.38 59.1657 123.38C53.5043 123.38 48.155 120.651 48.0432 114.294C47.8746 104.301 59.545 103.592 66.8743 103.592H68.339V103.196C68.339 99.8921 66.1028 98.1074 61.8921 98.1074C58.8694 98.1074 55.8859 99.2926 53.6795 101.315L48.8818 96.5495C53.2378 93.0967 57.77 91.8086 62.5984 91.8086C72.135 91.8086 76.3391 96.1177 76.3391 102.933ZM68.339 109.517H67.1827C63.2459 109.525 56.3313 109.715 56.3574 113.74C56.3947 119.41 68.339 117.608 68.339 110.77V109.517ZM202.04 119.143C202.04 117.227 203.519 115.783 205.415 115.783C207.288 115.783 208.769 117.227 208.769 119.143C208.769 121.092 207.288 122.532 205.415 122.532C203.519 122.532 202.04 121.092 202.04 119.143ZM205.415 123.205C207.673 123.205 209.599 121.49 209.599 119.143C209.599 116.819 207.673 115.108 205.415 115.108C203.137 115.108 201.209 116.819 201.209 119.143C201.209 121.49 203.137 123.205 205.415 123.205ZM204.538 119.467H205.372L206.629 121.49H207.442L206.084 119.434C206.786 119.35 207.322 118.982 207.322 118.147C207.322 117.227 206.763 116.819 205.634 116.819H203.817V121.49H204.538V119.467ZM204.538 118.865V117.421H205.523C206.028 117.421 206.565 117.527 206.565 118.106C206.565 118.823 206.017 118.865 205.406 118.865H204.538Z" fill="#AAAAA9"/>
</g>
<g clip-path="url(#clip4_1432_696)">
<path fill-rule="evenodd" clip-rule="evenodd" d="M1.12695 283.719C1.12695 270.662 11.4868 259.956 24.4159 259.956H47.7049V283.719C47.7049 296.777 37.3036 307.483 24.4159 307.483C11.5283 307.483 1.12695 296.903 1.12695 283.719ZM14.6776 276.918C13.5173 279.269 13.9731 282.292 15.9208 284.265C18.3243 286.784 22.4682 286.742 24.996 284.223C27.5238 281.704 27.5238 277.548 24.996 274.987C23.0484 272.971 20.0647 272.509 17.7441 273.727L18.9873 275.071C18.3243 275.28 17.6612 275.742 17.1225 276.288C16.5424 276.834 16.0865 277.422 15.9208 278.177L14.6776 276.918ZM14.2632 273.475C17.5784 269.99 23.0069 269.99 26.4464 273.475C29.5958 276.624 29.8859 281.704 27.1509 285.231L29.6787 287.876C30.4246 287.498 31.2948 287.708 31.8335 288.254L36.6405 293.082C37.3864 293.838 37.3864 294.971 36.6405 295.727L36.1018 296.273C35.3559 297.029 34.237 297.029 33.4911 296.273L28.7256 291.445C28.0625 290.899 27.9797 290.017 28.3526 289.261L25.8248 286.616C22.4268 289.471 17.4126 289.177 14.2632 285.987C10.8237 282.544 10.8237 276.96 14.2632 273.475Z" fill="#AAAAA9"/>
<path d="M95.6506 282.838C95.6506 278.304 95.4848 274.483 95.3605 271.25H104.933L105.472 276.246H105.637C107.046 273.979 110.735 270.41 116.536 270.41C123.788 270.41 129.258 275.323 129.258 286.029V307.525H118.277V287.456C118.277 282.838 116.66 279.563 112.724 279.563C109.657 279.563 107.875 281.746 107.171 283.804C106.881 284.433 106.715 285.609 106.715 286.617V307.483H95.7335V282.838H95.6506V282.838ZM157.022 286.617C157.022 285.987 156.94 285.189 156.857 284.643C156.235 281.536 153.79 279.101 150.434 279.101C145.419 279.101 142.809 283.72 142.809 289.471C142.809 295.601 145.792 299.464 150.351 299.464C153.583 299.464 156.111 297.197 156.691 294.006C156.857 293.166 156.981 292.368 156.981 291.361L157.022 286.617V286.617ZM168.045 254.834V296.651C168.045 300.723 168.211 305.006 168.335 307.483H158.473L157.934 302.109H157.768C155.531 306.181 151.262 308.239 146.663 308.239C138.25 308.239 131.496 300.891 131.496 289.639C131.413 277.38 138.913 270.326 147.408 270.326C151.801 270.326 155.199 271.838 156.815 274.399H156.981V254.834H168.045V254.834ZM193.696 285.273C193.696 282.544 192.495 277.926 187.439 277.926C182.798 277.926 180.933 282.166 180.643 285.273H193.696ZM180.767 292.998C181.14 297.617 185.616 299.884 190.796 299.884C194.525 299.884 197.592 299.338 200.575 298.456L201.984 306.097C198.42 307.525 193.904 308.365 189.179 308.365C177.079 308.365 170.2 301.185 170.2 289.891C170.2 280.739 175.753 270.578 188.102 270.578C199.539 270.578 203.932 279.731 203.932 288.716C203.932 290.605 203.766 292.326 203.559 293.166H180.726L180.767 292.998V292.998ZM206.335 283.174C206.335 277.8 206.17 274.399 206.045 271.208H215.535L215.908 277.926H216.198C217.98 272.636 222.372 270.41 225.771 270.41C226.765 270.41 227.262 270.41 228.091 270.578V281.2C227.262 281.033 226.392 280.907 225.108 280.907C221.088 280.907 218.311 283.09 217.566 286.617C217.4 287.372 217.4 288.254 217.4 289.178V307.609H206.418V283.174H206.335ZM80.1937 271.292H91.1751V307.567H80.1937V271.292ZM69.7095 270.033C69.7095 266.044 71.6571 263.063 77.5001 262.979C77.1271 262.055 76.9614 261.09 76.9614 259.956C76.9614 257.689 77.7902 255.716 79.1162 254.12C78.4946 254.036 77.873 254.036 77.2515 254.036C66.3529 254.036 58.6451 259.662 58.6451 269.655V271.166H54.0039V279.521H58.6451V307.441H69.7509V279.521H75.6768V271.208H69.7095V270.033Z" fill="#AAAAA9"/>
<path d="M92.2112 259.956C92.2112 263.651 89.3519 266.548 85.7052 266.548C82.1414 266.548 79.1992 263.525 79.1992 259.956C79.1992 256.387 82.0585 253.365 85.7052 253.365C89.3519 253.365 92.2112 256.345 92.2112 259.956V259.956Z" fill="#AAAAA9"/>
</g>
<g clip-path="url(#clip5_1432_696)">
<path fill-rule="evenodd" clip-rule="evenodd" d="M238.76 172.431C239.55 172.418 240.338 172.515 241.104 172.72L242.206 166.906C241.422 166.665 240.092 166.476 238.575 166.476C233.888 166.476 230.164 168.687 229.2 173.396L228.557 176.424H224.742L223.455 182.959H227.268L224.276 198.316L224.003 199.458C223.455 201.57 222.625 202.197 220.651 202.197C220.337 202.197 220.03 202.18 219.737 202.156L218.619 208.04C219.447 208.165 220.282 208.227 221.119 208.225C225.807 208.225 229.529 206.014 230.495 201.305L230.636 200.637H230.674L231.081 198.546L231.138 198.278L234.125 182.954H238.537L239.824 176.419H235.174L235.404 175.17C235.818 173.107 236.783 172.431 238.76 172.431Z" fill="#AAAAA9"/>
<path fill-rule="evenodd" clip-rule="evenodd" d="M264.545 176.421H257.65L255.077 189.684C254.341 193.335 252.365 194.874 249.882 194.874C247.539 194.874 246.39 193.431 246.39 191.607C246.397 191.139 246.443 190.672 246.528 190.212L249.242 176.421H242.347L239.498 190.499C239.336 191.355 239.243 192.223 239.222 193.094C239.222 197.9 242.623 201.215 248.367 201.215C251.814 201.215 253.83 200.35 255.444 198.092L255.49 198.188C255.793 198.907 256.287 199.523 256.914 199.965C257.742 200.542 258.753 200.83 259.856 200.83C261.097 200.83 261.924 200.687 262.568 200.495L263.717 194.536C263.382 194.594 263.045 194.626 262.706 194.632C261.878 194.632 261.373 194.007 261.373 192.998C261.379 192.642 261.425 192.287 261.51 191.941L264.545 176.421Z" fill="#AAAAA9"/>
<path fill-rule="evenodd" clip-rule="evenodd" d="M288.786 193.19C288.79 192.818 288.836 192.447 288.924 192.086L290.028 186.512C290.174 185.703 290.25 184.884 290.256 184.061C290.256 178.824 287.039 175.892 282.49 175.892C279.825 175.892 277.619 176.998 275.918 179.64L276.562 176.42H269.667L264.98 200.639H271.828L274.402 187.184C274.953 184.254 276.885 182.235 279.457 182.235C281.8 182.235 283.088 183.532 283.088 185.791C283.103 186.244 283.057 186.696 282.95 187.136L281.939 192.518C281.709 193.718 281.524 194.681 281.524 195.497C281.524 198.669 283.547 200.83 286.672 200.83C288.783 200.83 289.383 200.543 289.475 200.495L290.625 194.681C290.366 194.714 290.105 194.73 289.844 194.728C289.154 194.728 288.786 194.152 288.786 193.19Z" fill="#AAAAA9"/>
<path fill-rule="evenodd" clip-rule="evenodd" d="M304.614 194.585C301.167 194.585 298.915 192.374 298.915 189.251C298.915 185.744 301.902 182.429 305.762 182.429C309.163 182.429 311.462 184.591 311.462 187.618C311.456 191.607 308.376 194.585 304.614 194.585ZM316.978 193.288C316.986 192.932 317.032 192.577 317.114 192.231L321.987 167.148H315.23L312.84 179.305C312.197 177.624 309.394 175.99 305.303 175.99C298.364 175.99 292.019 182.333 292.019 189.971C292.019 196.699 296.798 201.024 302.911 201.024C306.68 201.024 309.024 200.159 310.856 197.997L310.901 198.142C311.209 198.952 311.757 199.641 312.467 200.11C313.336 200.687 314.443 200.975 315.592 200.975C316.833 200.975 317.66 200.83 318.304 200.638L319.452 194.679C319.118 194.738 318.78 194.77 318.441 194.776C317.525 194.777 316.971 194.201 316.971 193.288H316.978Z" fill="#AAAAA9"/>
<path fill-rule="evenodd" clip-rule="evenodd" d="M338.594 185.791H327.748C328.617 183.533 330.966 181.755 333.955 181.755C336.714 181.755 338.598 183.437 338.598 185.648L338.594 185.791ZM334.092 175.845C326.186 175.845 320.532 182.62 320.532 190.02C320.532 196.748 325.125 201.312 332.114 201.312C335.699 201.312 339.421 200.159 342.5 196.987L338.961 192.758C337.307 194.345 335.377 195.257 333.217 195.257C329.541 195.257 327.289 193.48 327.289 190.836C327.289 190.74 327.289 190.501 327.335 190.452H344.615C344.963 189.267 345.147 188.038 345.167 186.8C345.167 180.504 340.801 175.845 334.092 175.845Z" fill="#AAAAA9"/>
<path fill-rule="evenodd" clip-rule="evenodd" d="M365.249 176.132C364.447 175.976 363.631 175.895 362.814 175.891C360.056 175.891 357.803 176.997 356.058 179.639L356.746 176.419H349.853L345.119 200.638H352.013L354.124 189.779C354.994 185.358 357.526 182.522 361.294 182.522C361.294 182.522 362.972 178.993 366.609 176.482L365.249 176.132Z" fill="#AAAAA9"/>
<path fill-rule="evenodd" clip-rule="evenodd" d="M374.576 194.583C371.13 194.583 368.878 192.373 368.878 189.25C368.878 185.743 371.865 182.426 375.725 182.426C379.127 182.426 381.425 184.59 381.425 187.616C381.425 191.604 378.344 194.583 374.576 194.583ZM386.939 193.287C386.949 192.93 386.995 192.576 387.077 192.23L390.156 176.42H383.401L382.802 179.304C382.16 177.621 379.357 175.987 375.267 175.987C368.326 175.987 361.982 182.33 361.982 189.97C361.982 196.698 366.762 201.023 372.875 201.023C376.644 201.023 378.987 200.158 380.822 198.043L380.866 198.139C381.188 199.053 381.787 199.677 382.521 200.158C383.444 200.702 384.491 200.983 385.555 200.974C386.796 200.974 387.623 200.831 388.267 200.638L389.415 194.68C389.079 194.738 388.742 194.77 388.403 194.776C387.491 194.776 386.939 194.199 386.939 193.287Z" fill="#AAAAA9"/>
<path fill-rule="evenodd" clip-rule="evenodd" d="M186.174 184.46C185.918 184.192 185.612 183.978 185.274 183.832C184.936 183.685 184.573 183.609 184.206 183.608C183.839 183.606 183.475 183.679 183.136 183.823C182.797 183.967 182.49 184.178 182.232 184.444L161.977 205.219C158.295 200.222 156.319 194.132 156.352 187.881C156.409 172.139 168.797 159.437 184.02 159.496C195.206 159.539 204.804 166.466 209.09 176.378L194.241 191.608C194.241 191.608 193.96 191.896 193.637 191.895C193.529 191.897 193.422 191.875 193.324 191.831C193.225 191.786 193.138 191.719 193.068 191.636L186.174 184.46Z" fill="#AAAAA9"/>
<path fill-rule="evenodd" clip-rule="evenodd" d="M193.612 199.183C193.245 199.181 192.882 199.105 192.544 198.958C192.206 198.812 191.9 198.599 191.643 198.331L184.79 191.194C184.715 191.103 184.622 191.03 184.517 190.978C184.412 190.927 184.298 190.899 184.181 190.896C183.947 190.909 183.727 191.015 183.569 191.192L165.788 209.429C170.754 213.939 177.165 216.442 183.814 216.466C199.04 216.524 211.426 203.824 211.482 188.086C211.489 186.231 211.32 184.38 210.979 182.557L195.586 198.346C195.328 198.612 195.02 198.823 194.681 198.966C194.342 199.11 193.979 199.184 193.612 199.183Z" fill="#AAAAA9"/>
</g>
<defs>
<clipPath id="clip0_1432_696">
<rect width="392" height="53" fill="white" transform="translate(0 0.0744629)"/>
</clipPath>
<clipPath id="clip1_1432_696">
<rect width="149" height="49" fill="white" transform="translate(242.016 76.0002)"/>
</clipPath>
<clipPath id="clip2_1432_696">
<rect width="119" height="62" fill="white" transform="translate(1.58789 156.981)"/>
</clipPath>
<clipPath id="clip3_1432_696">
<rect width="209" height="47" fill="white" transform="translate(0.984375 77.0002)"/>
</clipPath>
<clipPath id="clip4_1432_696">
<rect width="228" height="55" fill="white" transform="translate(0.609375 253.365)"/>
</clipPath>
<clipPath id="clip5_1432_696">
<rect width="235" height="68" fill="white" transform="translate(156.078 155.182)"/>
</clipPath>
</defs>
</svg>
