<svg width="600" height="400" viewBox="0 0 600 400" fill="none" xmlns="http://www.w3.org/2000/svg">
<g clip-path="url(#clip0_1430_628)">
<path d="M46.6191 34.1726V350.35" stroke="#333333" stroke-miterlimit="10"/>
<path d="M172.766 34.1726V350.35" stroke="#CCCCCC" stroke-miterlimit="10"/>
<path d="M300.02 34.1726V350.35" stroke="#CCCCCC" stroke-miterlimit="10"/>
<path d="M426.168 34.1726V350.35" stroke="#CCCCCC" stroke-miterlimit="10"/>
<path d="M552.316 34.1726V350.35" stroke="#CCCCCC" stroke-miterlimit="10"/>
<path d="M47.1719 77.8405V50.2026H94.7538C95.9761 50.2026 96.967 51.1925 96.967 52.4137V75.6295C96.967 76.8506 95.9761 77.8405 94.7538 77.8405H47.1719Z" fill="#CF534A"/>
<path d="M47.1719 120.956V93.3179H189.918C191.14 93.3179 192.131 94.3078 192.131 95.5289V118.745C192.131 119.966 191.14 120.956 189.918 120.956H47.1719Z" fill="#CF534A"/>
<path d="M47.1719 164.071V136.433H271.803C273.025 136.433 274.016 137.423 274.016 138.644V161.86C274.016 163.081 273.025 164.071 271.803 164.071H47.1719Z" fill="#CF534A"/>
<path d="M47.1719 206.08V178.442H486.475C487.697 178.442 488.688 179.432 488.688 180.653V203.869C488.688 205.09 487.697 206.08 486.475 206.08H47.1719Z" fill="#CF534A"/>
<path d="M47.1719 249.196V221.558H145.655C146.878 221.558 147.869 222.548 147.869 223.769V246.984C147.869 248.206 146.878 249.196 145.655 249.196H47.1719Z" fill="#CF534A"/>
<path d="M47.1719 292.31V264.673H120.205C121.427 264.673 122.418 265.663 122.418 266.884V290.099C122.418 291.321 121.427 292.31 120.205 292.31H47.1719Z" fill="#CF534A"/>
<path d="M47.1719 335.426V307.788H94.7538C95.9761 307.788 96.967 308.778 96.967 309.999V333.215C96.967 334.436 95.9761 335.426 94.7538 335.426H47.1719Z" fill="#CF534A"/>
<path d="M43.6855 364.076C43.6855 362.947 43.8008 362.043 44.0313 361.364C44.2619 360.673 44.6019 360.143 45.0515 359.775C45.5125 359.406 46.0889 359.222 46.7804 359.222C47.2876 359.222 47.7314 359.326 48.1118 359.533C48.5037 359.74 48.8264 360.04 49.08 360.431C49.3336 360.811 49.5296 361.277 49.6679 361.83C49.8062 362.383 49.8754 363.132 49.8754 364.076C49.8754 365.193 49.7601 366.091 49.5296 366.771C49.3105 367.45 48.9705 367.98 48.5094 368.36C48.0599 368.728 47.4836 368.912 46.7804 368.912C45.8698 368.912 45.1494 368.584 44.6192 367.928C43.9968 367.145 43.6855 365.861 43.6855 364.076ZM44.8786 364.076C44.8786 365.63 45.063 366.667 45.4318 367.185C45.8007 367.703 46.2502 367.962 46.7804 367.962C47.3222 367.962 47.7717 367.703 48.1291 367.185C48.4979 366.667 48.6823 365.63 48.6823 364.076C48.6823 362.51 48.4979 361.473 48.1291 360.967C47.7717 360.448 47.3164 360.189 46.7632 360.189C46.2329 360.189 45.8064 360.414 45.4837 360.863C45.0803 361.439 44.8786 362.51 44.8786 364.076Z" fill="#757575"/>
<path d="M172.182 367.634V368.757H165.889C165.889 368.481 165.935 368.21 166.027 367.945C166.188 367.519 166.442 367.099 166.788 366.684C167.145 366.27 167.658 365.792 168.327 365.25C169.364 364.398 170.061 363.725 170.419 363.229C170.787 362.734 170.972 362.268 170.972 361.83C170.972 361.37 170.805 360.984 170.471 360.673C170.136 360.35 169.704 360.189 169.174 360.189C168.609 360.189 168.159 360.356 167.825 360.69C167.491 361.024 167.318 361.491 167.306 362.089L166.113 361.968C166.194 361.07 166.5 360.391 167.03 359.93C167.572 359.458 168.298 359.222 169.208 359.222C170.119 359.222 170.839 359.475 171.37 359.982C171.9 360.489 172.165 361.116 172.165 361.865C172.165 362.245 172.084 362.619 171.923 362.988C171.773 363.345 171.514 363.73 171.145 364.145C170.787 364.548 170.194 365.101 169.364 365.803C168.661 366.391 168.206 366.794 167.998 367.012C167.802 367.22 167.641 367.427 167.514 367.634H172.182ZM173.79 364.076C173.79 362.947 173.905 362.043 174.136 361.364C174.367 360.673 174.707 360.143 175.156 359.775C175.617 359.406 176.193 359.222 176.885 359.222C177.392 359.222 177.836 359.326 178.216 359.533C178.608 359.74 178.931 360.04 179.185 360.431C179.438 360.811 179.634 361.277 179.773 361.83C179.911 362.383 179.98 363.132 179.98 364.076C179.98 365.193 179.865 366.091 179.634 366.771C179.415 367.45 179.075 367.98 178.614 368.36C178.165 368.728 177.588 368.912 176.885 368.912C175.974 368.912 175.254 368.584 174.724 367.928C174.101 367.145 173.79 365.861 173.79 364.076ZM174.983 364.076C174.983 365.63 175.168 366.667 175.536 367.185C175.905 367.703 176.355 367.962 176.885 367.962C177.427 367.962 177.876 367.703 178.234 367.185C178.603 366.667 178.787 365.63 178.787 364.076C178.787 362.51 178.603 361.473 178.234 360.967C177.876 360.448 177.421 360.189 176.868 360.189C176.338 360.189 175.911 360.414 175.588 360.863C175.185 361.439 174.983 362.51 174.983 364.076Z" fill="#757575"/>
<path d="M296.01 368.757V366.477H291.895V365.406L296.234 359.256H297.185V365.406H298.465V366.477H297.185V368.757H296.01ZM296.01 365.406V361.139L293.036 365.406H296.01ZM300.021 364.076C300.021 362.947 300.136 362.043 300.367 361.364C300.597 360.673 300.937 360.143 301.387 359.775C301.848 359.406 302.424 359.222 303.116 359.222C303.623 359.222 304.067 359.326 304.447 359.533C304.839 359.74 305.162 360.04 305.415 360.431C305.669 360.811 305.865 361.277 306.003 361.83C306.141 362.383 306.211 363.132 306.211 364.076C306.211 365.193 306.095 366.091 305.865 366.771C305.646 367.45 305.306 367.98 304.845 368.36C304.395 368.728 303.819 368.912 303.116 368.912C302.205 368.912 301.485 368.584 300.954 367.928C300.332 367.145 300.021 365.861 300.021 364.076ZM301.214 364.076C301.214 365.63 301.398 366.667 301.767 367.185C302.136 367.703 302.585 367.962 303.116 367.962C303.657 367.962 304.107 367.703 304.464 367.185C304.833 366.667 305.018 365.63 305.018 364.076C305.018 362.51 304.833 361.473 304.464 360.967C304.107 360.448 303.652 360.189 303.098 360.189C302.568 360.189 302.142 360.414 301.819 360.863C301.416 361.439 301.214 362.51 301.214 364.076Z" fill="#757575"/>
<path d="M424.556 361.588L423.398 361.675C423.294 361.214 423.15 360.88 422.966 360.673C422.643 360.339 422.251 360.172 421.79 360.172C421.421 360.172 421.093 360.276 420.805 360.483C420.447 360.759 420.159 361.157 419.94 361.675C419.733 362.181 419.623 362.907 419.612 363.851C419.888 363.425 420.228 363.109 420.632 362.901C421.047 362.694 421.479 362.59 421.928 362.59C422.701 362.59 423.358 362.878 423.899 363.454C424.453 364.03 424.729 364.767 424.729 365.665C424.729 366.264 424.597 366.822 424.332 367.341C424.078 367.847 423.727 368.239 423.277 368.515C422.827 368.78 422.32 368.912 421.756 368.912C420.776 368.912 419.98 368.555 419.369 367.841C418.759 367.128 418.453 365.953 418.453 364.318C418.453 362.475 418.793 361.139 419.473 360.31C420.061 359.585 420.856 359.222 421.859 359.222C422.608 359.222 423.219 359.435 423.692 359.861C424.176 360.276 424.464 360.851 424.556 361.588ZM419.802 365.682C419.802 366.085 419.882 366.471 420.044 366.84C420.217 367.197 420.453 367.473 420.753 367.669C421.064 367.865 421.392 367.962 421.738 367.962C422.222 367.962 422.643 367.767 423 367.375C423.358 366.972 423.536 366.431 423.536 365.751C423.536 365.095 423.358 364.577 423 364.197C422.655 363.817 422.217 363.627 421.686 363.627C421.156 363.627 420.707 363.817 420.338 364.197C419.98 364.577 419.802 365.072 419.802 365.682ZM426.251 364.076C426.251 362.947 426.366 362.043 426.597 361.364C426.827 360.673 427.167 360.143 427.617 359.775C428.078 359.406 428.654 359.222 429.346 359.222C429.853 359.222 430.297 359.326 430.677 359.533C431.069 359.74 431.392 360.04 431.645 360.431C431.899 360.811 432.095 361.277 432.233 361.83C432.372 362.383 432.441 363.132 432.441 364.076C432.441 365.193 432.325 366.091 432.095 366.771C431.876 367.45 431.536 367.98 431.075 368.36C430.625 368.728 430.049 368.912 429.346 368.912C428.435 368.912 427.715 368.584 427.185 367.928C426.562 367.145 426.251 365.861 426.251 364.076ZM427.444 364.076C427.444 365.63 427.628 366.667 427.997 367.185C428.366 367.703 428.816 367.962 429.346 367.962C429.888 367.962 430.337 367.703 430.694 367.185C431.063 366.667 431.248 365.63 431.248 364.076C431.248 362.51 431.063 361.473 430.694 360.967C430.337 360.448 429.882 360.189 429.329 360.189C428.798 360.189 428.372 360.414 428.049 360.863C427.646 361.439 427.444 362.51 427.444 364.076Z" fill="#757575"/>
<path d="M546.534 363.609C546.05 363.425 545.687 363.172 545.445 362.849C545.214 362.515 545.099 362.124 545.099 361.675C545.099 360.984 545.347 360.402 545.843 359.93C546.35 359.458 547.013 359.222 547.831 359.222C548.661 359.222 549.329 359.464 549.837 359.947C550.344 360.431 550.597 361.018 550.597 361.709C550.597 362.147 550.482 362.527 550.252 362.849C550.021 363.172 549.669 363.425 549.197 363.609C549.785 363.794 550.228 364.099 550.528 364.525C550.828 364.951 550.978 365.458 550.978 366.045C550.978 366.851 550.69 367.531 550.113 368.083C549.548 368.636 548.793 368.912 547.848 368.912C546.915 368.912 546.16 368.636 545.583 368.083C545.007 367.531 544.719 366.84 544.719 366.01C544.719 365.389 544.874 364.87 545.186 364.456C545.508 364.041 545.958 363.759 546.534 363.609ZM546.292 361.623C546.292 362.072 546.436 362.441 546.724 362.728C547.024 363.016 547.404 363.16 547.866 363.16C548.315 363.16 548.684 363.022 548.972 362.746C549.26 362.458 549.404 362.107 549.404 361.692C549.404 361.266 549.255 360.909 548.955 360.621C548.655 360.322 548.286 360.172 547.848 360.172C547.399 360.172 547.024 360.316 546.724 360.604C546.436 360.892 546.292 361.231 546.292 361.623ZM545.929 366.01C545.929 366.344 546.004 366.667 546.154 366.978C546.315 367.289 546.551 367.531 546.863 367.703C547.174 367.876 547.508 367.962 547.866 367.962C548.419 367.962 548.874 367.784 549.231 367.427C549.6 367.07 549.785 366.615 549.785 366.062C549.785 365.498 549.6 365.032 549.231 364.663C548.863 364.295 548.396 364.11 547.831 364.11C547.278 364.11 546.822 364.295 546.465 364.663C546.108 365.02 545.929 365.469 545.929 366.01ZM552.482 364.076C552.482 362.947 552.597 362.043 552.828 361.364C553.058 360.673 553.398 360.143 553.848 359.775C554.309 359.406 554.885 359.222 555.577 359.222C556.084 359.222 556.528 359.326 556.908 359.533C557.3 359.74 557.623 360.04 557.876 360.431C558.13 360.811 558.326 361.277 558.464 361.83C558.603 362.383 558.672 363.132 558.672 364.076C558.672 365.193 558.556 366.091 558.326 366.771C558.107 367.45 557.767 367.98 557.306 368.36C556.856 368.728 556.28 368.912 555.577 368.912C554.666 368.912 553.946 368.584 553.416 367.928C552.793 367.145 552.482 365.861 552.482 364.076ZM553.675 364.076C553.675 365.63 553.859 366.667 554.228 367.185C554.597 367.703 555.047 367.962 555.577 367.962C556.119 367.962 556.568 367.703 556.925 367.185C557.294 366.667 557.479 365.63 557.479 364.076C557.479 362.51 557.294 361.473 556.925 360.967C556.568 360.448 556.113 360.189 555.56 360.189C555.029 360.189 554.603 360.414 554.28 360.863C553.877 361.439 553.675 362.51 553.675 364.076Z" fill="#757575"/>
</g>
<defs>
<clipPath id="clip0_1430_628">
<rect width="600" height="400" fill="white"/>
</clipPath>
</defs>
</svg>
