<svg width="1058" height="286" viewBox="0 0 1058 286" fill="none" xmlns="http://www.w3.org/2000/svg">
<g clip-path="url(#clip0)">
<path d="M117.862 43.2206C117.862 48.0206 119.062 52.2873 121.462 56.0206C123.996 59.754 127.062 63.0206 130.662 65.8206C134.262 68.6206 139.129 72.0206 145.262 76.0206C151.929 80.2873 157.262 84.0206 161.262 87.2206C165.262 90.4206 168.662 94.354 171.462 99.0206C174.262 103.554 175.662 108.821 175.662 114.821C175.662 121.754 173.796 127.954 170.062 133.421C166.329 138.754 161.129 142.954 154.462 146.021C147.929 148.954 140.596 150.421 132.462 150.421C126.462 150.421 120.196 149.621 113.662 148.021C107.129 146.287 102.729 144.421 100.462 142.421C99.7958 141.887 99.2625 141.421 98.8625 141.021C98.5958 140.487 98.4625 139.687 98.4625 138.621L97.8625 106.821V106.621C97.8625 106.087 98.1958 105.821 98.8625 105.821C99.5291 105.687 99.9291 105.887 100.062 106.421C104.062 114.554 107.529 121.154 110.462 126.221C113.529 131.287 117.329 135.754 121.862 139.621C126.529 143.487 131.796 145.421 137.662 145.421C142.996 145.421 147.396 144.021 150.862 141.221C154.329 138.287 156.062 133.354 156.062 126.421C156.062 120.554 154.729 115.421 152.062 111.021C149.529 106.621 146.396 102.887 142.662 99.8206C138.929 96.754 133.796 93.0873 127.262 88.8206C120.862 84.6873 115.862 81.154 112.262 78.2206C108.796 75.2873 105.796 71.754 103.262 67.6206C100.729 63.4873 99.4625 58.6206 99.4625 53.0206C99.4625 45.954 101.462 40.0206 105.462 35.2206C109.596 30.2873 114.862 26.6873 121.262 24.4206C127.662 22.0206 134.396 20.8206 141.462 20.8206C146.129 20.8206 150.862 21.2873 155.662 22.2206C160.462 23.0206 164.329 24.0206 167.262 25.2206C168.462 25.754 169.262 26.354 169.662 27.0206C170.062 27.554 170.262 28.2873 170.262 29.2206V58.6206C170.262 59.0206 169.929 59.354 169.262 59.6206C168.596 59.754 168.196 59.6206 168.062 59.2206L166.462 55.4206C163.129 47.0206 159.196 39.8873 154.662 34.0206C150.262 28.154 144.062 25.2206 136.062 25.2206C130.729 25.2206 126.329 26.754 122.862 29.8206C119.529 32.8873 117.862 37.354 117.862 43.2206ZM285.192 116.221C285.192 115.954 285.459 115.821 285.992 115.821C286.392 115.821 286.725 115.954 286.992 116.221C287.392 116.354 287.592 116.487 287.592 116.621C286.259 127.021 285.592 136.487 285.592 145.021C285.592 146.087 285.392 146.887 284.992 147.421C284.592 147.821 283.792 148.021 282.592 148.021H194.192C193.792 148.021 193.592 147.621 193.592 146.821C193.592 146.021 193.792 145.621 194.192 145.621C198.459 145.621 201.525 145.287 203.392 144.621C205.392 143.954 206.725 142.687 207.392 140.821C208.059 138.821 208.392 135.821 208.392 131.821V39.2206C208.392 35.2206 208.059 32.2873 207.392 30.4206C206.725 28.554 205.392 27.2873 203.392 26.6206C201.392 25.8206 198.325 25.4206 194.192 25.4206C193.792 25.4206 193.592 25.0206 193.592 24.2206C193.592 23.4206 193.792 23.0206 194.192 23.0206H278.992C280.325 23.0206 280.992 23.6206 280.992 24.8206L281.392 51.4206C281.392 51.6873 280.992 51.8873 280.192 52.0206C279.525 52.154 279.125 52.0206 278.992 51.6206C276.859 43.8873 273.259 38.154 268.192 34.4206C263.125 30.6873 256.459 28.8206 248.192 28.8206H242.192C238.192 28.8206 235.259 29.6873 233.392 31.4206C231.525 33.154 230.592 35.8206 230.592 39.4206V80.2206H247.192C254.925 80.2206 260.859 78.8873 264.992 76.2206C269.125 73.554 271.192 69.8206 271.192 65.0206C271.192 64.6206 271.525 64.4206 272.192 64.4206C272.992 64.4206 273.392 64.6206 273.392 65.0206L273.192 83.0206L273.392 92.6206C273.659 97.154 273.792 100.754 273.792 103.421C273.792 103.687 273.392 103.821 272.592 103.821C271.792 103.821 271.392 103.687 271.392 103.421C271.392 97.954 269.259 93.6873 264.992 90.6206C260.859 87.4206 254.859 85.8206 246.992 85.8206H230.592V131.021C230.592 134.887 231.325 137.754 232.792 139.621C234.259 141.487 236.592 142.421 239.792 142.421H246.392C256.792 142.421 265.125 140.287 271.392 136.021C277.659 131.754 282.259 125.154 285.192 116.221ZM369.544 150.421C357.144 150.421 346.077 147.554 336.344 141.821C326.744 135.954 319.277 128.087 313.944 118.221C308.744 108.221 306.144 97.354 306.144 85.6206C306.144 71.8873 309.61 60.154 316.544 50.4206C323.477 40.554 332.344 33.154 343.144 28.2206C354.077 23.2873 365.21 20.8206 376.544 20.8206C389.21 20.8206 400.344 23.8206 409.944 29.8206C419.544 35.6873 426.877 43.4873 431.944 53.2206C437.144 62.954 439.744 73.2873 439.744 84.2206C439.744 96.354 436.544 107.487 430.144 117.621C423.744 127.754 415.144 135.754 404.344 141.621C393.677 147.487 382.077 150.421 369.544 150.421ZM376.144 145.421C383.61 145.421 390.277 143.287 396.144 139.021C402.144 134.621 406.81 128.287 410.144 120.021C413.477 111.621 415.144 101.621 415.144 90.0206C415.144 77.754 413.277 66.8206 409.544 57.2206C405.81 47.4873 400.41 39.8873 393.344 34.4206C386.277 28.954 378.01 26.2206 368.544 26.2206C356.41 26.2206 347.077 30.8206 340.544 40.0206C334.01 49.0873 330.744 61.8206 330.744 78.2206C330.744 91.154 332.677 102.754 336.544 113.021C340.544 123.154 345.944 131.087 352.744 136.821C359.677 142.554 367.477 145.421 376.144 145.421ZM662.944 145.621C663.21 145.621 663.344 146.021 663.344 146.821C663.344 147.621 663.21 148.021 662.944 148.021C658.41 148.021 654.81 147.954 652.144 147.821L637.344 147.621L622.344 147.821C619.81 147.954 616.344 148.021 611.944 148.021C611.544 148.021 611.344 147.621 611.344 146.821C611.344 146.021 611.544 145.621 611.944 145.621C617.544 145.621 621.344 144.954 623.344 143.621C625.344 142.287 626.344 139.487 626.344 135.221L626.144 131.821L621.944 50.0206L580.744 146.621C580.477 147.154 579.944 147.421 579.144 147.421C578.344 147.421 577.81 147.154 577.544 146.621L526.944 50.4206L525.344 122.621C525.21 129.821 526.61 135.487 529.544 139.621C532.61 143.621 536.877 145.621 542.344 145.621C542.744 145.621 542.944 146.021 542.944 146.821C542.944 147.621 542.744 148.021 542.344 148.021C538.744 148.021 535.944 147.954 533.944 147.821L522.944 147.621L510.344 147.821C508.21 147.954 505.344 148.021 501.744 148.021C501.344 148.021 501.144 147.621 501.144 146.821C501.144 146.021 501.344 145.621 501.744 145.621C507.21 145.621 511.544 143.554 514.744 139.421C517.944 135.287 519.61 129.687 519.744 122.621L521.544 39.8206L521.344 39.6206C518.677 34.6873 515.877 31.0873 512.944 28.8206C510.144 26.554 506.877 25.4206 503.144 25.4206C502.744 25.4206 502.544 25.0206 502.544 24.2206C502.544 23.4206 502.744 23.0206 503.144 23.0206L512.544 23.2206C514.41 23.354 516.81 23.4206 519.744 23.4206L530.344 23.2206C531.544 23.0873 533.077 23.0206 534.944 23.0206C536.677 23.0206 538.01 23.6206 538.944 24.8206C539.877 26.0206 541.61 28.8873 544.144 33.4206L587.744 115.221L625.744 28.0206C626.544 26.154 627.344 24.8873 628.144 24.2206C629.077 23.4206 630.277 23.0206 631.744 23.0206C632.944 23.0206 634.277 23.0873 635.744 23.2206C637.344 23.354 639.144 23.4206 641.144 23.4206L652.944 23.2206C654.81 23.0873 657.477 23.0206 660.944 23.0206C661.344 23.0206 661.544 23.4206 661.544 24.2206C661.544 25.0206 661.344 25.4206 660.944 25.4206C654.677 25.4206 650.144 26.6873 647.344 29.2206C644.544 31.754 643.277 35.6873 643.544 41.0206L648.344 131.821C648.61 135.954 649.077 138.954 649.744 140.821C650.544 142.687 651.877 143.954 653.744 144.621C655.744 145.287 658.81 145.621 662.944 145.621ZM739.828 77.8206C751.028 79.154 759.895 82.8873 766.428 89.0206C773.095 95.154 776.428 102.754 776.428 111.821C776.428 118.754 774.428 125.021 770.428 130.621C766.428 136.221 760.895 140.687 753.828 144.021C746.761 147.221 738.895 148.821 730.228 148.821C726.495 148.821 722.228 148.621 717.428 148.221C715.561 148.087 713.228 147.954 710.428 147.821C707.761 147.687 704.761 147.621 701.428 147.621L686.828 147.821C684.161 147.954 680.561 148.021 676.028 148.021C675.628 148.021 675.428 147.621 675.428 146.821C675.428 146.021 675.628 145.621 676.028 145.621C679.895 145.621 682.828 145.287 684.828 144.621C686.828 143.821 688.228 142.487 689.028 140.621C689.961 138.621 690.428 135.687 690.428 131.821V39.2206C690.428 33.6206 689.495 29.954 687.628 28.2206C685.761 26.354 681.961 25.4206 676.228 25.4206C675.961 25.4206 675.828 25.0206 675.828 24.2206C675.828 23.4206 675.961 23.0206 676.228 23.0206L686.828 23.2206C692.961 23.4873 697.828 23.6206 701.428 23.6206C705.161 23.6206 709.028 23.4206 713.028 23.0206C714.361 22.8873 716.361 22.754 719.028 22.6206C721.695 22.4873 724.028 22.4206 726.028 22.4206C738.161 22.4206 747.561 24.6206 754.228 29.0206C760.895 33.4206 764.228 39.8206 764.228 48.2206C764.228 54.6206 762.095 60.4206 757.828 65.6206C753.695 70.8206 747.695 74.8873 739.828 77.8206ZM723.028 26.8206C719.161 26.8206 716.495 27.754 715.028 29.6206C713.561 31.354 712.828 34.6873 712.828 39.6206V77.6206L720.828 77.8206C727.761 77.8206 733.095 75.2206 736.828 70.0206C740.561 64.8206 742.428 58.154 742.428 50.0206C742.428 42.4206 740.761 36.6873 737.428 32.8206C734.095 28.8206 729.295 26.8206 723.028 26.8206ZM726.828 143.821C744.295 143.821 753.028 134.754 753.028 116.621C753.028 106.354 750.561 98.2206 745.628 92.2206C740.695 86.2206 733.228 83.2206 723.228 83.2206C719.361 83.2206 715.895 83.354 712.828 83.6206V131.821C712.828 136.221 713.695 139.354 715.428 141.221C717.161 142.954 720.961 143.821 726.828 143.821ZM930.173 145.621C930.84 145.621 931.173 146.021 931.173 146.821C931.173 147.621 930.84 148.021 930.173 148.021C927.507 148.021 923.373 147.887 917.773 147.621C911.907 147.354 907.707 147.221 905.173 147.221C901.84 147.221 897.773 147.354 892.973 147.621C888.44 147.887 884.84 148.021 882.173 148.021C881.64 148.021 881.373 147.621 881.373 146.821C881.373 146.021 881.64 145.621 882.173 145.621C885.64 145.621 888.107 145.287 889.573 144.621C891.173 143.821 891.973 142.487 891.973 140.621C891.973 138.354 890.64 134.554 887.973 129.221L874.373 102.221H825.173L817.373 119.621C815.64 123.487 814.773 127.087 814.773 130.421C814.773 135.221 816.44 138.954 819.773 141.621C823.24 144.287 827.84 145.621 833.573 145.621C834.24 145.621 834.573 146.021 834.573 146.821C834.573 147.621 834.24 148.021 833.573 148.021C831.173 148.021 827.707 147.887 823.173 147.621C818.107 147.354 813.707 147.221 809.973 147.221C806.373 147.221 802.04 147.354 796.973 147.621C792.44 147.887 788.773 148.021 785.973 148.021C785.44 148.021 785.173 147.621 785.173 146.821C785.173 146.021 785.44 145.621 785.973 145.621C789.707 145.621 792.84 144.887 795.373 143.421C797.907 141.821 800.44 139.087 802.973 135.221C805.507 131.221 808.507 125.354 811.973 117.621L855.373 22.2206C855.64 21.8206 856.24 21.6206 857.173 21.6206C858.24 21.6206 858.84 21.8206 858.973 22.2206L908.973 120.621C913.64 130.087 917.507 136.621 920.573 140.221C923.64 143.821 926.84 145.621 930.173 145.621ZM827.773 96.6206H871.373L848.373 51.0206L827.773 96.6206Z" fill="black"/>
<path d="M43.776 244.137C216.547 243.973 877.648 197.252 1038.18 196.716M9.14001 257.28C182.883 264.137 879.286 252.14 1048.86 245.032L9.14001 257.28Z" stroke="#CF534A" stroke-width="10"/>
</g>
<defs>
<clipPath id="clip0">
<rect width="1058" height="285" fill="white" transform="translate(0 0.5)"/>
</clipPath>
</defs>
</svg>
