<svg width="899" height="313" viewBox="0 0 899 313" fill="none" xmlns="http://www.w3.org/2000/svg">
<g clip-path="url(#clip0)">
<path d="M111.732 76.2C111.732 81 112.932 85.2667 115.332 89C117.866 92.7333 120.932 96 124.532 98.8C128.132 101.6 132.999 105 139.132 109C145.799 113.267 151.132 117 155.132 120.2C159.132 123.4 162.532 127.333 165.332 132C168.132 136.533 169.532 141.8 169.532 147.8C169.532 154.733 167.666 160.933 163.932 166.4C160.199 171.733 154.999 175.933 148.332 179C141.799 181.933 134.466 183.4 126.332 183.4C120.332 183.4 114.066 182.6 107.532 181C100.999 179.267 96.599 177.4 94.3323 175.4C93.6657 174.867 93.1323 174.4 92.7323 174C92.4657 173.467 92.3323 172.667 92.3323 171.6L91.7323 139.8V139.6C91.7323 139.067 92.0657 138.8 92.7323 138.8C93.399 138.667 93.799 138.867 93.9323 139.4C97.9323 147.533 101.399 154.133 104.332 159.2C107.399 164.267 111.199 168.733 115.732 172.6C120.399 176.467 125.666 178.4 131.532 178.4C136.866 178.4 141.266 177 144.732 174.2C148.199 171.267 149.932 166.333 149.932 159.4C149.932 153.533 148.599 148.4 145.932 144C143.399 139.6 140.266 135.867 136.532 132.8C132.799 129.733 127.666 126.067 121.132 121.8C114.732 117.667 109.732 114.133 106.132 111.2C102.666 108.267 99.6657 104.733 97.1323 100.6C94.599 96.4667 93.3323 91.6 93.3323 86C93.3323 78.9333 95.3323 73 99.3323 68.2C103.466 63.2667 108.732 59.6667 115.132 57.4C121.532 55 128.266 53.8 135.332 53.8C139.999 53.8 144.732 54.2667 149.532 55.2C154.332 56 158.199 57 161.132 58.2C162.332 58.7333 163.132 59.3333 163.532 60C163.932 60.5333 164.132 61.2667 164.132 62.2V91.6C164.132 92 163.799 92.3333 163.132 92.6C162.466 92.7333 162.066 92.6 161.932 92.2L160.332 88.4C156.999 80 153.066 72.8667 148.532 67C144.132 61.1333 137.932 58.2 129.932 58.2C124.599 58.2 120.199 59.7333 116.732 62.8C113.399 65.8667 111.732 70.3333 111.732 76.2ZM279.062 149.2C279.062 148.933 279.329 148.8 279.862 148.8C280.262 148.8 280.595 148.933 280.862 149.2C281.262 149.333 281.462 149.467 281.462 149.6C280.129 160 279.462 169.467 279.462 178C279.462 179.067 279.262 179.867 278.862 180.4C278.462 180.8 277.662 181 276.462 181H188.062C187.662 181 187.462 180.6 187.462 179.8C187.462 179 187.662 178.6 188.062 178.6C192.329 178.6 195.395 178.267 197.262 177.6C199.262 176.933 200.595 175.667 201.262 173.8C201.929 171.8 202.262 168.8 202.262 164.8V72.2C202.262 68.2 201.929 65.2667 201.262 63.4C200.595 61.5333 199.262 60.2667 197.262 59.6C195.262 58.8 192.195 58.4 188.062 58.4C187.662 58.4 187.462 58 187.462 57.2C187.462 56.4 187.662 56 188.062 56H272.862C274.195 56 274.862 56.6 274.862 57.8L275.262 84.4C275.262 84.6667 274.862 84.8667 274.062 85C273.395 85.1333 272.995 85 272.862 84.6C270.729 76.8667 267.129 71.1333 262.062 67.4C256.995 63.6667 250.329 61.8 242.062 61.8H236.062C232.062 61.8 229.129 62.6667 227.262 64.4C225.395 66.1333 224.462 68.8 224.462 72.4V113.2H241.062C248.795 113.2 254.729 111.867 258.862 109.2C262.995 106.533 265.062 102.8 265.062 98C265.062 97.6 265.395 97.4 266.062 97.4C266.862 97.4 267.262 97.6 267.262 98L267.062 116L267.262 125.6C267.529 130.133 267.662 133.733 267.662 136.4C267.662 136.667 267.262 136.8 266.462 136.8C265.662 136.8 265.262 136.667 265.262 136.4C265.262 130.933 263.129 126.667 258.862 123.6C254.729 120.4 248.729 118.8 240.862 118.8H224.462V164C224.462 167.867 225.195 170.733 226.662 172.6C228.129 174.467 230.462 175.4 233.662 175.4H240.262C250.662 175.4 258.995 173.267 265.262 169C271.529 164.733 276.129 158.133 279.062 149.2ZM363.414 183.4C351.014 183.4 339.947 180.533 330.214 174.8C320.614 168.933 313.147 161.067 307.814 151.2C302.614 141.2 300.014 130.333 300.014 118.6C300.014 104.867 303.48 93.1333 310.414 83.4C317.347 73.5333 326.214 66.1333 337.014 61.2C347.947 56.2667 359.08 53.8 370.414 53.8C383.08 53.8 394.214 56.8 403.814 62.8C413.414 68.6667 420.747 76.4667 425.814 86.2C431.014 95.9333 433.614 106.267 433.614 117.2C433.614 129.333 430.414 140.467 424.014 150.6C417.614 160.733 409.014 168.733 398.214 174.6C387.547 180.467 375.947 183.4 363.414 183.4ZM370.014 178.4C377.48 178.4 384.147 176.267 390.014 172C396.014 167.6 400.68 161.267 404.014 153C407.347 144.6 409.014 134.6 409.014 123C409.014 110.733 407.147 99.8 403.414 90.2C399.68 80.4667 394.28 72.8667 387.214 67.4C380.147 61.9333 371.88 59.2 362.414 59.2C350.28 59.2 340.947 63.8 334.414 73C327.88 82.0667 324.614 94.8 324.614 111.2C324.614 124.133 326.547 135.733 330.414 146C334.414 156.133 339.814 164.067 346.614 169.8C353.547 175.533 361.347 178.4 370.014 178.4ZM578.939 78.8C582.939 78.8 586.472 81.6 589.539 87.2C592.739 92.6667 594.339 98.9333 594.339 106C594.339 112.933 593.072 122 590.539 133.2C588.139 144.4 584.872 154.667 580.739 164C576.605 173.333 572.539 178 568.539 178C565.739 178 564.339 176.2 564.339 172.6C564.339 168.867 566.605 159.867 571.139 145.6C575.805 131.2 578.139 119.8 578.139 111.4C578.139 102.867 576.805 98.6 574.139 98.6C570.805 98.6 566.939 101.533 562.539 107.4C558.272 113.267 553.672 120.333 548.739 128.6C543.805 136.867 541.139 141.333 540.739 142C540.339 142.533 539.805 143.333 539.139 144.4C538.605 145.467 537.939 146.6 537.139 147.8C536.472 149 534.605 152.6 531.539 158.6C528.605 164.6 526.005 169.333 523.739 172.8C521.472 176.133 519.472 177.8 517.739 177.8C516.139 177.8 514.339 176.733 512.339 174.6C510.339 172.467 509.339 170.467 509.339 168.6C509.339 166.733 510.539 162.867 512.939 157C519.872 139.667 523.339 123.533 523.339 108.6C523.339 105.8 522.739 103.467 521.539 101.6C520.339 99.6 519.005 98.6 517.539 98.6C516.072 98.6 514.539 99.2667 512.939 100.6C511.339 101.8 509.339 104.067 506.939 107.4C504.539 110.6 502.405 113.667 500.539 116.6C498.672 119.533 495.805 124.133 491.939 130.4C488.205 136.533 485.339 141.133 483.339 144.2C481.472 147.133 479.272 150.6 476.739 154.6C474.205 158.467 472.205 161.467 470.739 163.6C469.405 165.733 467.872 168.067 466.139 170.6C462.539 175.533 459.872 178 458.139 178C456.539 178 454.405 176.533 451.739 173.6C449.072 170.533 447.739 168.267 447.739 166.8C447.739 165.2 448.005 163.267 448.539 161C449.072 158.733 449.605 156.533 450.139 154.4C450.805 152.267 451.739 149.133 452.939 145C454.272 140.733 455.739 135.8 457.339 130.2C459.072 124.467 460.339 116.667 461.139 106.8C462.072 96.8 462.739 89.5333 463.139 85C463.539 80.3333 464.672 78 466.539 78C469.472 78 472.339 79.5333 475.139 82.6C478.072 85.6667 479.539 88.7333 479.539 91.8C479.539 103.533 475.139 122.867 466.339 149.8C481.272 121.8 490.672 105.2 494.539 100C498.405 94.8 501.739 90.6 504.539 87.4C509.739 81.6667 515.005 78.8 520.339 78.8C523.539 78.8 527.339 81.6 531.739 87.2C536.272 92.6667 538.539 98.2 538.539 103.8C538.539 109.4 537.739 116.333 536.139 124.6C551.872 94.0667 566.139 78.8 578.939 78.8ZM617.318 178C615.452 178 613.252 176.6 610.718 173.8C608.185 170.867 606.918 168.133 606.918 165.6C606.918 163.067 608.985 154.4 613.118 139.6C617.385 124.8 621.585 107 625.718 86.2C629.985 65.2667 632.118 46.1333 632.118 28.8C632.118 24.8 633.585 22.8 636.518 22.8C638.652 22.8 641.252 24.8 644.318 28.8C647.385 32.6667 648.918 36.4667 648.918 40.2C648.918 56.6 645.318 80 638.118 110.4C653.985 88.9333 668.385 78.2 681.318 78.2C687.585 78.2 692.852 81.2667 697.118 87.4C701.518 93.5333 703.718 100.867 703.718 109.4C703.718 117.8 701.252 127.467 696.318 138.4C691.518 149.333 684.985 158.733 676.718 166.6C668.452 174.333 659.785 178.2 650.718 178.2C641.652 178.2 632.718 173.6 623.918 164.4L623.718 164.6C620.785 173.533 618.652 178 617.318 178ZM649.118 162.6C657.785 162.6 666.252 156.733 674.518 145C682.918 133.133 687.118 120.667 687.118 107.6C687.118 99.7333 684.718 95.8 679.918 95.8C672.185 95.8 663.518 101.2 653.918 112C644.452 122.8 636.252 135.667 629.318 150.6C635.585 158.6 642.185 162.6 649.118 162.6ZM766.996 78.8C772.996 78.8 778.53 81.8667 783.596 88C788.663 94 791.196 99.4667 791.196 104.4C791.196 109.2 789.53 114.133 786.196 119.2C787.796 121.2 788.596 122.933 788.596 124.4C788.596 128.133 787.73 134.533 785.996 143.6C784.396 152.667 783.396 158.6 782.996 161.4C782.73 164.2 782.463 166.467 782.196 168.2C781.93 169.8 781.596 171.4 781.196 173C780.663 176.333 779.463 178 777.596 178C775.196 178 773.196 175.933 771.596 171.8C770.13 167.533 769.263 162.067 768.996 155.4C757.13 170.467 746.13 178 735.996 178C729.863 178 723.796 175.4 717.796 170.2C711.93 164.867 708.996 159.4 708.996 153.8C708.996 145.8 711.93 135.933 717.796 124.2C723.663 112.333 731.263 101.8 740.596 92.6C749.93 83.4 758.73 78.8 766.996 78.8ZM776.196 114C776.196 101.6 773.73 95.4 768.796 95.4C763.596 95.4 757.53 99.1333 750.596 106.6C743.663 113.933 737.796 122.267 732.996 131.6C728.196 140.933 725.796 148.333 725.796 153.8C725.796 156.067 726.73 157.933 728.596 159.4C730.463 160.733 732.663 161.4 735.196 161.4C741.463 161.4 748.53 157.2 756.396 148.8C764.263 140.267 769.73 129.933 772.796 117.8C773.196 115.8 774.33 114.6 776.196 114.2V114Z" fill="black"/>
<path d="M84.7206 248.309C216.848 248.185 722.429 212.696 845.196 212.289M58.2325 258.292C191.103 263.501 723.681 254.389 853.364 248.989L58.2325 258.292Z" stroke="#CF534A" stroke-width="10"/>
</g>
<defs>
<clipPath id="clip0">
<rect width="899" height="313" fill="white"/>
</clipPath>
</defs>
</svg>
